<svg width="1092" height="1139" viewBox="0 0 1092 1139" fill="none" xmlns="http://www.w3.org/2000/svg">
<path fill-rule="evenodd" clip-rule="evenodd" d="M1091.21 787.424C1091.21 705.599 1079.17 613.62 1066.73 519.351C1044.58 349.926 1021.62 174.927 1063.5 41.7369C1068.76 25.113 1059.35 7.39409 1042.35 2.21778C1025.46 -2.95853 1007.56 6.39865 1002.2 23.0226C956.071 169.353 980.045 351.32 1003.11 527.414C1028.7 722.521 1052.87 906.878 968.715 984.622C919.555 1030.01 833.07 1039.97 704.202 1015.38C516.16 979.346 337.424 961.826 157.473 961.826C139.873 961.826 125.408 975.961 125.408 993.481C125.408 1010.9 139.873 1025.04 157.575 1025.04C333.175 1024.94 507.966 1042.06 691.963 1077.4C842.477 1106.17 947.271 1090.94 1012.62 1030.61C1072.5 975.364 1091.21 889.258 1091.21 787.424Z" fill="#6339FE"/>
<path fill-rule="evenodd" clip-rule="evenodd" d="M483.69 826.511C483.69 810.455 471.295 796.93 455.027 795.762C391.017 791.383 319.455 830.598 256.317 865.337C230.558 879.349 206.252 892.777 185.723 901.243C161.611 911.363 136.142 918.174 109.125 925.278C79.2022 933.354 48.3112 941.528 18.9696 954.567C8.60804 959.335 1.63577 969.261 0.861077 980.646C0.0863812 992.128 5.60609 1003.03 15.2898 1009.06C83.4631 1051.87 168.099 1078.05 249.829 1103.25C285.659 1114.35 319.358 1124.66 351.217 1136.34C367.099 1142.18 384.723 1133.9 390.533 1117.85C396.343 1101.7 388.015 1084.08 372.134 1078.24C338.822 1066.08 302.799 1055.09 268.034 1044.19C214.193 1027.65 159.093 1010.62 109.996 989.014C114.838 987.652 119.874 986.387 124.909 985.025C152.605 977.532 181.268 969.942 209.254 958.265C232.883 948.534 258.544 934.425 285.756 919.44C341.437 888.885 404.671 854.244 450.766 857.357C467.712 858.525 482.335 845.778 483.497 828.652C483.594 828.068 483.69 827.29 483.69 826.511Z" fill="#6339FE"/>
</svg>
