<svg width="2095" height="2310" viewBox="0 0 2095 2310" fill="none" xmlns="http://www.w3.org/2000/svg">
<g clip-path="url(#clip0_531_12)">
<path fill-rule="evenodd" clip-rule="evenodd" d="M823.824 216.512C1204.09 216.512 1558.62 220.075 1937.88 249.171C1882.17 393.07 1799.52 555.575 1726.93 693.338C1702.6 739.655 1668.81 840.009 1636.84 870.887C1578.52 927.298 1478.98 885.93 1408.6 884.94C1050.66 879.398 689.897 901.567 337.583 906.713C423.248 803.193 501.272 660.283 581.307 539.938C651.488 433.647 782.6 348.535 823.824 216.512C879.326 306.968 794.264 593.183 794.264 716.893C794.264 910.672 794.062 1104.65 794.264 1298.43C794.465 1521.5 751.029 1443.32 644.651 1582.07C604.03 1635.31 502.881 1781.79 459.847 1830.68C425.259 1869.87 356.686 1907.87 344.219 1969.82C335.572 1980.51 327.93 1981.7 321.093 1995.36C308.625 1904.31 300.783 1802.37 310.234 1711.91C320.49 1616.11 307.218 1489.43 310.234 1392.64C315.462 1234.3 342.811 1072.38 337.583 906.713C475.733 816.652 791.448 896.816 948.702 896.816C1178.15 896.816 1353.7 822.392 1580.94 837.633C1591.39 1220.24 1626.79 1648.58 1611.3 2029.01C1175.33 2062.46 739.566 2007.23 304.402 2007.23C321.696 2012.97 344.621 2006.05 361.714 2005.06C457.233 1700.24 828.65 1392.64 873.695 1392.64C1093.49 1392.64 1636.64 1428.67 1938.48 1375.82C1943.91 1239.24 1938.48 1056.35 1938.48 796.265C1938.48 621.092 1980.51 402.769 1903.09 268.767C1903.09 652.366 1918.17 1044.08 1901.28 1426.1C1797.31 1534.56 1731.96 1767.53 1656.55 2007.23L823.824 216.512Z" fill="#FFFDFA"/>
<path fill-rule="evenodd" clip-rule="evenodd" d="M1779.39 2039.78L1787.93 2034.46L1776.62 2009.36L1779.39 2039.78Z" fill="#1A1919"/>
<path fill-rule="evenodd" clip-rule="evenodd" d="M1776.68 1887.04L1763.03 1889.17L1790.55 1979.78C1829.37 1955.32 1750.66 1903.21 1776.68 1887.04Z" fill="#1A1919"/>
<path fill-rule="evenodd" clip-rule="evenodd" d="M1782.91 1869.26C1803.6 1843.95 1783.55 1824.17 1778 1815.23C1792.72 1830.76 1755.39 1867.77 1782.91 1869.26Z" fill="#1A1919"/>
<path fill-rule="evenodd" clip-rule="evenodd" d="M1874.54 1117.63L1872.84 1108.27L1874.54 1117.63Z" fill="#1A1919"/>
<path fill-rule="evenodd" clip-rule="evenodd" d="M1544.94 1399.71L1538.38 1418.38C1659.72 1388.58 1799.92 1405.87 1928.6 1379.05L1920.85 1386.2C2014.19 1053.43 1921.25 753.041 1932.17 429.609L1942.1 440.734C1935.15 425.437 1922.24 409.742 1923.04 392.657C1926.41 387.491 1931.58 396.233 1933.56 401.795C1927.21 301.468 1901.99 216.835 1912.12 337.427C1915.29 356.698 1928.4 365.439 1937.93 354.512C1948.26 609.007 1957.39 880.388 1976.06 1142.23C1971.89 1154.55 1963.55 1156.74 1953.02 1153.16C2047.75 1395.14 1841.42 1634.73 1790.19 1811.75C1799.72 1823.86 1810.64 1794.46 1816.2 1819.3C1855.32 1759.1 1825.73 1682.61 1874.38 1636.92L1882.73 1649.04C1907.55 1612.08 1857.31 1627.98 1890.67 1592.42C1907.35 1580.3 1903.58 1603.54 1907.35 1596.19C1921.45 1546.72 1951.63 1525.27 1970.3 1486.53C2032.06 1314.48 1982.61 1349.84 1981.82 1274.15C2009.42 1250.9 1984.4 1163.49 2010.81 1125.74C2000.29 1099.12 2003.46 1072.3 1985.39 1061.97C1996.31 881.182 1991.75 700.394 1985 519.01C1923.04 446.893 2110.1 294.316 1843.8 287.958C1871.41 351.731 1884.31 432.192 1881.53 520.996C1923.63 689.07 1859.49 901.645 1880.74 1103.1L1875.38 1102.7C1888.29 1168.66 1893.25 1264.22 1886.1 1342.69C1985.39 1279.91 1878.36 1341.3 1884.12 1334.74C1474.44 1413.81 813.952 1108.46 515.085 1640.69C442.404 1701.29 294.062 1973.46 360.19 1919.03C384.616 2230.14 588.759 2020.35 692.221 2093.66C943.825 2109.55 1206.55 2097.43 1475.03 2062.47C1474.44 2067.63 1479.01 2070.41 1465.11 2072.4C1671.63 2140.14 1706.18 1818.1 1667.06 1729.5L1672.23 1729.89C1649.79 1547.72 1648.79 1359.18 1639.86 1173.42C1658.72 1027.2 1637.08 687.481 1394.81 818.006C1178.95 825.754 963.684 883.368 734.519 842.243C621.525 834.893 500.191 818.006 387.793 868.468C304.587 953.895 363.964 1088 341.127 1193.89L330.8 1192.3C322.46 1371.89 325.041 1550.3 312.133 1723.74C339.736 1811.94 244.814 1905.72 375.68 1992.34C423.737 1911.68 478.546 1874.13 538.319 1790.09C620.731 1621.22 830.832 1538.38 821.697 1309.91C811.172 1118.99 795.683 929.459 812.364 743.306C825.47 620.529 945.414 -49.9769 735.115 365.439C568.305 522.983 398.12 656.091 370.715 925.088C589.554 910.983 806.803 876.812 1028.42 850.985C1222.83 848.005 1461.53 873.633 1618.21 835.687C1697.84 675.958 1791.38 477.289 1893.05 313.785C1983.21 201.14 1579.09 209.087 1431.15 177.896L1438.5 191.207C1364.42 147.301 1269.9 243.655 1224.42 183.657L1232.37 181.273C1193.05 151.076 1139.03 250.013 1115.4 214.65L1108.85 229.152C1060.79 232.927 1103.29 212.663 1066.35 206.305C1052.45 208.094 1060.79 232.927 1031.8 224.186C1026.04 164.188 914.038 236.106 911.059 168.757C937.669 168.956 869.953 142.334 929.13 128.626C912.251 121.673 831.229 124.057 838.775 152.864C831.626 183.26 800.25 209.484 849.101 233.126L859.031 211.272C875.513 233.523 871.74 222.398 877.499 239.086C941.244 242.463 949.783 274.647 995.457 288.554L995.258 285.972C1026.63 259.946 1069.73 276.038 1094.55 280.011L1104.08 292.528C1118.78 318.355 1177.36 243.059 1157.3 286.965C1287.18 276.038 1435.52 278.819 1579.49 287.76C1600.54 272.065 1689.9 294.713 1659.92 260.939C1694.27 299.481 1800.51 313.984 1840.63 314.58L1830.9 320.143C1867.63 345.969 1891.07 336.036 1914.3 327.493L1931.58 321.732C1773.9 77.9656 1886.1 264.118 1848.17 214.054C1842.81 225.378 1832.48 236.503 1811.83 247.231C1845.39 273.058 1748.88 358.883 1777.08 416.099L1751.06 413.119C1694.67 519.606 1609.08 667.018 1571.35 741.32C1592.6 822.575 1510.58 736.552 1393.22 785.226C1325.1 775.292 1214.3 756.021 1119.17 777.279L1128.31 771.12C1021.07 775.689 885.839 778.669 814.548 813.238C781.583 766.153 736.108 777.08 689.838 762.975C619.341 787.014 475.766 784.63 367.935 807.874C489.865 1092.76 440.219 803.9 490.659 881.977C567.114 735.956 620.533 570.862 741.668 457.82C795.683 405.57 856.25 304.448 913.641 226.172C621.526 288.356 822.491 343.784 734.122 425.437L732.533 420.47C743.455 464.177 774.434 517.619 790.122 563.511C786.945 567.286 781.583 565.896 783.371 557.154C782.576 615.761 740.874 678.342 748.221 736.949L737.696 726.817C751.994 782.444 712.079 841.846 736.704 907.605L728.562 910.983L740.278 952.902C729.753 951.908 713.668 950.518 717.242 928.068C684.476 1241.57 812.364 1366.33 554.603 1589.24C482.319 1720.36 418.772 1761.48 318.289 1923.2C481.525 2000.28 347.084 1735.46 388.191 1646.06L397.921 1666.72L381.836 1560.03L391.964 1570.36C406.063 1440.04 378.46 1311.5 396.333 1185.34C401.297 1186.34 410.035 1205.81 417.382 1188.92C395.141 1095.94 461.666 1036.74 404.077 988.265C407.056 983.695 420.758 980.715 425.127 990.649C382.035 836.283 816.534 943.564 1040.34 932.836C1201.78 909.393 1633.9 751.055 1578.69 957.074L1567.97 956.279C1620.79 1247.92 1589.02 1559.64 1596.17 1862.01C1627.94 2023.92 1594.98 2008.83 1432.74 2007.04L1428.76 1993.53C1216.28 2044.19 984.336 1952.8 760.136 1997.3L776.023 1979.42C740.477 2006.64 641.582 1964.52 653.696 2013.59L614.774 1997.5C472.986 1994.12 252.36 2088.09 429.297 1888.23L434.262 1903.93C447.964 1856.84 468.021 1800.62 493.241 1773.8V1791.68C616.164 1693.54 687.058 1534.4 815.144 1431.1L814.747 1458.71C845.726 1371.3 1003.6 1403.08 1104.68 1397.52L1098.32 1407.26L1151.15 1394.34L1151.94 1414.81C1286.38 1419.57 1413.67 1405.47 1544.94 1399.71Z" fill="#1A1919"/>
<path fill-rule="evenodd" clip-rule="evenodd" d="M1934.84 413.286L1934.42 414.775L1934.84 413.286Z" fill="#1A1919"/>
<path fill-rule="evenodd" clip-rule="evenodd" d="M1029.23 294.82L1011.74 290.141L1029.23 294.82Z" fill="#1A1919"/>
<path fill-rule="evenodd" clip-rule="evenodd" d="M520.238 2310C513.41 2310 506.367 2308.62 499.965 2305.68C482.68 2297.9 474.357 2281.49 479.906 2266.28C508.075 2187.14 571.241 2106.1 632.273 2028C657.454 1996.03 680.715 1965.79 700.988 1936.93C912.894 1634.2 1122.88 1323.51 1326.04 1023.02C1364.02 966.516 1402.43 909.839 1440.63 853.335C1451.94 836.747 1477.55 830.872 1497.82 839.857C1518.31 848.842 1525.78 869.751 1514.68 886.166C1476.27 942.67 1438.07 999.174 1399.87 1055.85C1274.18 1241.95 1145.71 1432.03 1015.54 1621.58C1087.46 1523.44 1161.5 1422.18 1236.41 1328.18C1254.33 1305.71 1272.47 1283.25 1290.61 1260.61C1501.45 998.31 1719.12 727.194 1858.47 435.17C1871.27 407.523 1887.28 378.148 1904.14 347.217C1948.95 264.448 1998.89 172.694 2009.13 90.789C1888.13 161.29 1756.25 343.761 1664.49 470.42C1626.29 523.123 1593.64 568.741 1565.47 602.091C1151.9 1092.14 794.884 1547.97 473.504 1995.86C461.767 2011.93 435.732 2017.63 415.672 2008.13C395.613 1998.62 388.784 1977.71 400.308 1961.47C722.755 1512.2 1081.05 1055.16 1495.9 563.557C1522.15 532.108 1554.37 487.7 1591.93 435.861C1717.41 262.375 1873.62 46.035 2037.94 1.7994C2050.1 -1.48371 2063.12 -0.274147 2074 5.4281C2084.67 11.1303 2091.93 20.2885 2092.99 30.6562C2107.51 142.455 2040.5 265.658 1981.6 374.519C1964.96 404.931 1949.38 433.615 1937 459.534C1794.66 758.298 1574.22 1032.52 1361.46 1297.94C1343.32 1320.4 1325.4 1342.86 1307.26 1365.33C1231.29 1460.54 1159.16 1559.38 1082.76 1664.09C922.284 1884.4 756.259 2111.98 551.822 2298.42C543.499 2306.03 531.975 2310 520.238 2310Z" fill="#6339FE"/>
<path fill-rule="evenodd" clip-rule="evenodd" d="M969.316 1012.28C1095.85 1135.53 1226.61 1255.52 1354.62 1373.1C1409.09 1422.96 1463.77 1472.81 1517.82 1523.18C1545.16 1548.45 1572.71 1575.09 1601.75 1603.11C1706.45 1704.53 1821.95 1816.27 1951.66 1888.64C1941.91 1879.02 1931.95 1869.73 1921.99 1860.45C1909.7 1848.93 1897.83 1837.93 1887.02 1827.1C1619.97 1555.67 1376.45 1334.43 1142.26 1149.8C1085.04 1104.93 1026.33 1058 969.316 1012.28ZM2052.97 2006.05C2047.88 2006.05 2042.58 2005.36 2037.5 2003.65C1839.55 1939.01 1679.11 1783.78 1537.53 1646.95C1508.71 1618.93 1481.58 1592.62 1454.87 1568.04C1400.83 1517.85 1346.36 1467.82 1291.89 1417.97C1084.4 1227.67 869.916 1031.02 676.838 823.357C646.319 790.695 614.739 757.69 584.22 726.059C566.629 707.666 549.038 689.444 531.447 670.878C365.921 548.483 195.732 433.136 18.338 335.323C-0.736628 324.837 -5.82321 303.693 7.31712 288.05C20.2455 272.75 46.3142 268.624 65.3889 279.111C157.795 330.166 248.294 385.691 336.885 444.31C280.933 366.953 234.518 284.783 205.482 194.534C199.547 176.484 212.9 157.919 235.365 153.105C257.831 148.292 280.509 159.294 286.443 177.344C341.336 347.012 460.235 484.879 593.121 624.636C739.149 732.936 880.937 846.22 1020.61 957.957C1079.95 1005.4 1141.2 1054.39 1200.54 1101.15C1437.28 1287.67 1683.34 1510.97 1952.51 1784.64C1962.26 1794.44 1973.28 1804.75 1985.15 1815.93C2032.62 1860.11 2086.46 1910.3 2094.72 1968.41C2096.42 1980.27 2090.27 1991.96 2078.61 1999.18C2070.98 2003.82 2062.08 2006.05 2052.97 2006.05Z" fill="#6339FE"/>
</g>
<defs>
<clipPath id="clip0_531_12">
<rect width="2095" height="2310" fill="white"/>
</clipPath>
</defs>
</svg>
