<svg width="1682" height="1748" viewBox="0 0 1682 1748" fill="none" xmlns="http://www.w3.org/2000/svg">
<path fill-rule="evenodd" clip-rule="evenodd" d="M1009.89 1184.73L1007.42 1191.78C1053.13 1180.53 1105.95 1187.06 1154.43 1176.92L1151.51 1179.62C1186.67 1053.9 1151.66 940.417 1155.77 818.223L1159.52 822.426C1156.9 816.647 1152.03 810.717 1152.33 804.262C1153.61 802.311 1155.55 805.613 1156.3 807.715C1153.9 769.811 1144.4 737.836 1148.22 783.396C1149.42 790.677 1154.35 793.979 1157.94 789.851C1161.83 886 1165.28 988.528 1172.31 1087.45C1170.74 1092.11 1167.6 1092.93 1163.63 1091.58C1199.32 1183 1121.58 1273.52 1102.28 1340.4C1105.87 1344.98 1109.99 1333.87 1112.08 1343.25C1126.82 1320.51 1115.67 1291.61 1134 1274.35L1137.15 1278.93C1146.5 1264.97 1127.57 1270.97 1140.14 1257.53C1146.42 1252.96 1145 1261.74 1146.42 1258.96C1151.73 1240.27 1163.11 1232.17 1170.14 1217.53C1193.41 1152.53 1174.78 1165.89 1174.48 1137.29C1184.88 1128.51 1175.45 1095.49 1185.4 1081.22C1181.44 1071.17 1182.63 1061.03 1175.83 1057.13C1179.94 988.829 1178.22 920.526 1175.68 851.999C1152.33 824.753 1222.81 767.109 1122.48 764.707C1132.88 788.8 1137.74 819.199 1136.7 852.749C1152.56 916.248 1128.39 996.56 1136.4 1072.67L1134.38 1072.52C1139.24 1097.44 1141.11 1133.54 1138.42 1163.19C1175.83 1139.47 1135.5 1162.66 1137.67 1160.18C983.326 1190.06 734.492 1074.69 621.895 1275.77C594.513 1298.67 538.626 1401.49 563.539 1380.93C572.742 1498.47 649.651 1419.21 688.63 1446.9C783.421 1452.91 882.401 1448.33 983.551 1435.12C983.326 1437.07 985.047 1438.12 979.81 1438.87C1057.62 1464.47 1070.64 1342.8 1055.9 1309.32L1057.84 1309.47C1049.39 1240.65 1049.01 1169.42 1045.65 1099.24C1052.75 1044 1044.6 915.647 953.325 964.96C872.002 967.888 790.902 989.654 704.566 974.117C661.996 971.34 616.284 964.96 573.939 984.025C542.591 1016.3 564.961 1066.96 556.357 1106.97L552.467 1106.37C549.324 1174.22 550.297 1241.62 545.434 1307.15C555.833 1340.47 520.072 1375.9 569.375 1408.63C587.48 1378.15 608.129 1363.97 630.648 1332.22C661.697 1268.42 740.851 1237.12 737.409 1150.8C733.444 1078.67 727.609 1007.07 733.893 936.739C738.831 890.353 784.019 637.034 704.79 793.979C641.945 853.5 577.829 903.788 567.505 1005.42C649.951 1000.09 731.798 987.177 815.292 977.42C888.536 976.294 978.463 985.976 1037.49 971.64C1067.49 911.294 1102.73 836.237 1141.04 774.464C1175 731.907 1022.75 734.909 967.017 723.125L969.785 728.154C941.879 711.566 906.267 747.969 889.134 725.302L892.127 724.401C877.313 712.992 856.964 750.371 848.061 737.011L845.592 742.49C827.487 743.916 843.497 736.26 829.581 733.858C824.344 734.534 827.487 743.916 816.564 740.613C814.394 717.946 772.198 745.117 771.076 719.672C781.101 719.747 755.589 709.69 777.884 704.511C771.525 701.884 741.001 702.784 743.843 713.668C741.15 725.151 729.329 735.059 747.734 743.991L751.475 735.735C757.684 744.141 756.263 739.938 758.432 746.243C782.448 747.519 785.665 759.678 802.872 764.932L802.798 763.956C814.618 754.124 830.853 760.203 840.205 761.704L843.796 766.433C849.333 776.191 871.403 747.744 863.847 764.332C912.776 760.203 968.662 761.254 1022.9 764.632C1030.83 758.702 1064.5 767.259 1053.2 754.499C1066.15 769.06 1106.17 774.539 1121.29 774.765L1117.62 776.866C1131.46 786.624 1140.29 782.871 1149.04 779.643L1155.55 777.467C1096.15 685.371 1138.42 755.7 1124.13 736.785C1122.11 741.064 1118.22 745.267 1110.44 749.32C1123.08 759.078 1086.72 791.502 1097.34 813.119L1087.54 811.993C1066.3 852.224 1034.05 907.917 1019.84 935.988C1027.84 966.687 996.943 934.187 952.727 952.576C927.065 948.823 885.319 941.542 849.482 949.574L852.924 947.247C812.524 948.973 761.575 950.099 734.716 963.159C722.297 945.37 705.164 949.498 687.732 944.169C661.173 953.251 607.082 952.351 566.457 961.132C612.394 1068.76 593.69 959.631 612.693 989.129C641.497 933.962 661.622 871.589 707.259 828.881C727.609 809.141 750.427 770.937 772.049 741.364C661.996 764.857 737.709 785.798 704.416 816.647L703.817 814.77C707.932 831.283 719.603 851.473 725.514 868.812C724.317 870.238 722.297 869.712 722.97 866.41C722.671 888.552 706.96 912.195 709.728 934.337L705.763 930.509C711.149 951.525 696.111 973.967 705.389 998.811L702.321 1000.09L706.735 1015.92C702.77 1015.55 696.71 1015.02 698.057 1006.54C685.712 1124.98 733.893 1172.12 636.783 1256.33C609.551 1305.87 585.61 1321.41 547.753 1382.51C609.251 1411.63 558.602 1311.58 574.088 1277.8L577.754 1285.61L571.694 1245.3L575.51 1249.2C580.822 1199.97 570.422 1151.4 577.156 1103.74C579.026 1104.12 582.318 1111.47 585.086 1105.09C576.707 1069.97 601.77 1047.6 580.073 1029.28C581.196 1027.56 586.358 1026.43 588.004 1030.19C571.769 971.866 735.464 1012.4 819.781 1008.34C880.605 999.487 1043.4 939.666 1022.6 1017.5L1018.56 1017.2C1038.46 1127.38 1026.49 1245.15 1029.19 1359.39C1041.16 1420.56 1028.74 1414.86 967.615 1414.18L966.119 1409.08C886.067 1428.22 798.683 1393.69 714.217 1410.5L720.202 1403.75C706.81 1414.03 669.552 1398.12 674.116 1416.66L659.452 1410.58C606.034 1409.3 522.915 1444.8 589.575 1369.3L591.445 1375.22C596.608 1357.44 604.164 1336.19 613.665 1326.06V1332.82C659.976 1295.74 686.685 1235.62 734.94 1196.59L734.791 1207.02C746.462 1174 805.94 1186 844.021 1183.9L841.627 1187.58L861.527 1182.7L861.827 1190.43C912.476 1192.23 960.433 1186.91 1009.89 1184.73Z" fill="white"/>
<path fill-rule="evenodd" clip-rule="evenodd" d="M592.133 1748C589.254 1748 586.243 1747.21 583.625 1745.78C574.725 1740.93 571.452 1730.07 576.295 1721.3C579.568 1715.28 582.84 1709.13 585.981 1703.11C585.589 1699.84 585.981 1696.57 587.29 1693.3C659.151 1527.75 740.305 1348.72 835.987 1167.2C928.922 967.883 1034.16 771.578 1185.6 605.897C1192.02 598.699 1202.88 597.914 1210.34 604.195C1217.8 610.215 1219.11 621.078 1213.35 628.799C1079.71 808.353 966.488 997.067 868.449 1183.16C840.831 1242.32 814.39 1301.86 788.081 1360.89C732.058 1486.52 674.203 1616.34 608.102 1738.58C604.699 1744.47 598.678 1748 592.133 1748Z" fill="#6339FE"/>
<path fill-rule="evenodd" clip-rule="evenodd" d="M939.497 1392.41C954.94 1424.89 971.776 1458.15 989.877 1486.23C976.46 1454.66 957.978 1422.82 939.497 1392.41ZM1027.22 1575.79C1023.42 1575.79 1019.62 1574.37 1016.46 1571.91C963.042 1529.07 922.408 1440.03 886.458 1361.48C875.192 1336.63 864.432 1313.07 854.559 1294.05C841.521 1269.07 828.483 1244.09 815.318 1219.11C764.558 1121.53 711.898 1020.59 661.012 920.804C642.151 883.532 624.809 843.93 608.099 805.751C581.517 745.054 554.048 682.545 519.49 627.542C514.174 619.259 516.579 608.129 524.68 602.693C532.908 597.516 543.541 599.846 548.731 608.129C578.099 654.72 602.023 705.581 624.682 756.184C612.53 721.888 601.39 687.074 591.264 652.002C588.479 642.425 593.795 632.46 603.163 629.742C612.277 626.895 622.024 632.33 624.809 641.907C689.873 868.131 799.115 1073.52 924.687 1299.61C933.927 1316.18 944.813 1333.78 956.333 1352.55C995.067 1415.57 1038.99 1487.01 1044.69 1556.25C1045.19 1563.5 1041.65 1570.23 1035.57 1573.59C1033.04 1575.02 1030 1575.79 1027.22 1575.79Z" fill="#6339FE"/>
<path d="M2.96094 278.493C244.017 487.624 146.753 432.759 267.001 496.623" stroke="#6339FE" stroke-width="4" stroke-linecap="round"/>
<path d="M1380.56 301.454C1384.46 179.243 1564.74 48.2502 1644.6 2.96094" stroke="#6339FE" stroke-width="4" stroke-linecap="round"/>
<path d="M1472.4 806.869C1603.89 806.869 1534.92 803.833 1679.04 818.078" stroke="#6339FE" stroke-width="4" stroke-linecap="round"/>
<path d="M1472.4 1173.97C1558.77 1252.58 1616.3 1367.59 1679.04 1472.47" stroke="#6339FE" stroke-width="4" stroke-linecap="round"/>
</svg>
