<svg width="1450" height="990" viewBox="0 0 1450 990" fill="none" xmlns="http://www.w3.org/2000/svg">
<g clip-path="url(#clip0_588_65)">
<path fill-rule="evenodd" clip-rule="evenodd" d="M139.089 332.948L139.58 327.485C134.249 336.838 129.177 327.534 123.806 330.764L124.295 328.974C111.475 325.238 98.5131 332.641 84.4926 335.049L85.4185 332.377C84.5214 334.087 83.2488 337.413 82.6355 336.85L83.5005 333.888C82.1488 324.966 74.42 338.376 73.887 330.943L71.8492 338.202C61 337.934 49.492 336.996 36.6532 340.865L38.0798 334.372C24.9511 346.53 14.5597 334.103 6.28718 327.994L2.33608 334.862C3.67569 340.813 12.8519 329.637 12.8031 337.318L10.8496 340.363C12.1698 343.474 15.2071 332.246 15.578 337.532L13.7176 342.12C19.1469 342.854 23.4649 348.617 30.5156 341.698C29.1667 349.551 35.1295 343.158 34.5438 350.749C36.5809 348.049 37.5276 349.103 39.3572 344.148C53.6494 351.5 70.9743 349.524 86.082 351.149C95.3365 336.775 101.512 356.182 110.745 352.199L110.581 353.724C113.721 350.239 117.899 348.908 120.995 351.202L124.335 345.099C143.513 359.112 164.503 350.77 185.232 355.199C208.141 356.233 235.077 365.876 251.474 335.239L252.318 338.109C257.396 331.838 266.839 336.881 270.461 327.62L271.4 328.804C278.02 306.749 297.905 292.862 277.503 274.937C280.413 254.584 252.975 238.317 238.517 236.164L239.178 233.161C224.634 239.779 207.259 223.545 194.688 229.515C181.559 226.67 163.099 247.296 153.368 226.866C155.537 216.386 125.443 218.719 137.621 202.85C153.524 180.019 137.771 177.022 140.336 148.206C152.926 140.075 168.233 118.636 187.308 128.579C194.845 118.541 204.084 143.991 211.354 141.854L211.393 137.976C212.825 149.586 220.201 122.842 219.569 139.885L219.192 140.615C219.16 149.365 226.503 120.925 225.687 131.211L226.822 127.12C229.096 126.155 226.089 131.863 227.225 133.659C227.92 133.238 229.149 126.132 229.932 128.712C226.125 145.774 235.809 125.647 230.886 144.639C229.963 144.524 230.36 152.079 227.229 155.877C227.292 157.939 230.255 157.124 232.359 149.141C235.182 140.789 238.581 133.649 238.563 126.693L236.311 132.713C237.436 126.539 236.669 129.586 237.759 124.946C235.194 123.756 237.183 114.618 235.862 110.621L235.674 111.208C232.366 118.563 231.474 113.814 230.437 112.545L230.718 108.944C231.372 101.513 224.321 122.991 227.772 110.385C220.828 112.7 213.811 111.755 206.9 111.207C205.675 115.969 201.591 110.17 202.929 119.794C201.536 108.864 196.042 105.626 194.07 105.83L194.498 104.192C189.713 89.8284 190.873 116.683 185.948 99.3401C186.804 110.624 178.42 95.5731 178.367 111.041L176.626 103.995L153.42 106.821C152.939 118.483 137.984 108.247 141.628 122.716C136.666 121.467 126.487 118.953 127.644 129.476L126.689 127.666C123.296 133.791 119.038 142.436 125.015 150.786C111.943 145.575 112.782 149.903 107.279 150.91C111.01 157.936 105.428 166.256 108.878 173.21C102.573 173.355 112.288 178.156 103.048 177.711C123.76 195.631 120.607 210.264 114.053 235.266L113.455 235.33C121.225 238.488 131.942 231.532 139.076 229.516L136.991 230.781C140.727 231.347 136.543 239.58 140.794 240.624L138.188 242.427C143.516 241.304 140.018 252.918 147.679 249.348L146.647 251.622L150.606 250.068C149.189 252.759 146.919 256.824 146.062 255.099C178.847 282.642 202.243 245.995 220.43 253.845L219.928 256.781L223.223 251.456L222.842 254.53C226.729 259.717 231.757 250.681 236.159 251.788L234.982 257.985C240.223 249.303 236.728 268.132 241.771 252.95L239.867 258.76C244.524 258.998 249.824 264.28 253.089 268.591C270.164 271.47 256.736 280.716 271.256 288.604L268.156 288.212C281.248 301.707 256.82 306.065 254.073 314.005C248.85 314.64 247.617 319.089 243.008 321.172L241.203 317.507C238.144 334.125 222.151 312.176 217.579 328.614L217.057 323.265C217.41 331.598 211.202 320.94 214.489 334.863L212.056 330.895C209.047 350.278 199.745 323.652 194.049 336.705L194.142 333.247C192.506 336.158 190.34 338.407 188.566 335.552L188.941 333.051C181.823 320.69 176.222 336.172 169.34 335.106L169.852 328.811C166.953 336.246 160.977 329.224 156.794 332.457L157.137 329.589L155.019 333.717L154.897 327.692C149.634 327.204 144.448 332.191 139.089 332.948Z" fill="#6339FE"/>
<path fill-rule="evenodd" clip-rule="evenodd" d="M435.388 264.199L433.277 261.808L438.178 268.837L435.388 264.199Z" fill="#6339FE"/>
<path fill-rule="evenodd" clip-rule="evenodd" d="M446.151 278.234L449.737 282.809L436.305 262.618C427.378 251.749 452.145 285.417 446.151 278.234Z" fill="#6339FE"/>
<path fill-rule="evenodd" clip-rule="evenodd" d="M440.191 286.949C436.258 282.522 442.922 292.092 445.038 295.303C439.989 287.925 447.764 296.886 440.191 286.949Z" fill="#6339FE"/>
<path fill-rule="evenodd" clip-rule="evenodd" d="M404.291 309.906L404.12 309.02L404.291 309.906Z" fill="#6339FE"/>
<path fill-rule="evenodd" clip-rule="evenodd" d="M408.406 344.457L409.966 352.363C410.038 338.486 417.491 353.328 419.075 346.943L419.811 349.735C428.224 349.019 429.834 332.875 433.407 323.472L435.04 327.622C434.118 324.847 432.182 319.832 432.83 320.302L434.585 324.587C442.07 336.186 434.891 314.584 440.443 323.59L435.466 313.222C438.66 307.458 442.646 302.35 441.42 290.701L447.231 299.41C439.316 278.493 447.639 284.211 454.08 284.891L446.6 274.966C441.138 269.647 452.887 287.819 445.412 279.568L442.336 275.038C439.53 272.503 450.445 286.745 445.296 281.107L440.94 275.071C440.575 277.834 436.102 274.394 441.86 286.602C434.836 276.546 439.806 287.35 432.884 277.685C435.098 282.147 434.032 281.296 438.103 288.322C428.753 285.772 428.451 299.56 421.455 302.407C427.922 325.801 413.065 302.119 412.686 311.346L411.901 309.195C412.735 315.237 411.899 319.007 409.447 317.005L411.473 326.763C396.707 305.712 392.344 317.934 384.048 310.466C371.942 307.162 386.805 285.701 359.773 301.897L362.936 299.685C357.772 300.201 361.202 295.144 356.206 295.154L357.986 294.212C340.67 293.43 355.867 279.402 335.391 275.554L326.873 242.04L331.105 243.099C324.037 231.882 342.84 229.672 341.273 222.204C353.243 223.827 329.4 192.412 345.09 194.194C359.742 206.973 340.68 165.828 358.564 184.562C383.307 216.588 375.96 191.27 390.098 171.421C398.993 187.7 413.993 162.331 420.016 190.571C428.937 178.214 424.662 213 430.071 210.641L431.626 205.696C427.532 220.971 443.671 187.108 435.977 209.003L435.408 209.927C431.515 221.142 448.795 185.74 443.696 198.647L446.242 193.468C448.206 192.51 443.574 199.568 443.544 202.064C444.292 201.56 448.206 192.51 447.531 195.901C437.531 217.346 452.834 192.842 441.121 216.442C440.508 216.206 437.277 225.96 433.611 230.311C432.699 232.996 434.776 232.3 439.86 222.38L454.19 194.377L449.89 201.915C453.545 194.216 451.63 198.01 454.441 192.098C453.212 190.26 458.674 178.813 459.45 173.392L459.066 174.3C453.689 183.227 455.178 177.069 454.987 175.412L456.654 170.73C460.367 161.206 446.382 187.758 453.951 172.064L439.622 170.014C437.022 176.272 436.713 168.144 433.598 180.892C437.273 166.292 434.782 161.327 433.373 161.18L434.311 158.857C436.899 139.131 426.997 175.002 430.591 150.999C426.343 167.27 427.293 143.831 421.926 162.75L423.813 152.697L412.271 140.15C407.616 153.8 405.161 130.192 400.991 149.969C399.382 144.816 395.999 134.579 392.699 141.755L393.013 139.324C389.979 139.122 385.23 138.654 383.385 153.036C381.094 132.835 379.303 137.073 376.797 130.562C374.885 140.253 368.824 138.356 366.557 147.514C363.685 138.178 364.258 152.216 360.58 138.565C355.952 167.23 344.96 159.603 320.132 146.86L319.644 146.012C322.46 152.95 331.662 168.291 337.281 177.454L335.213 174.545C336 178.06 326.067 168.245 326.483 171.794L323.621 167.918C326.878 174.234 313.653 162.402 319.782 172.466L317.063 169.833L320.014 174.976C316.806 171.494 311.792 166.173 313.388 166.612C299.848 180.62 304.521 207.943 303.896 222.178L299.95 220.129L306.877 225.88L302.78 224.08C295.021 225.884 306.901 233.942 304.893 237.216L296.3 235.09C307.817 240.631 280.767 237.152 305.008 243.376L296.43 241.74C304.862 251.944 301.869 259.238 300.972 268.001C324.639 273.475 307.891 282.946 326.672 286.272L322.472 287.248C339.825 290.684 326.351 304.849 334.629 311.518C336.106 315.299 341.909 314.325 344.604 316.596L340.919 320.148C358.312 309.782 340.675 344.343 358.335 331.132L354.534 337.278C360.607 328.18 356.047 343.714 364.32 326.356L362.403 332.261C375.162 310.824 363.737 350.508 374.178 334.029L372.684 338.513C374.886 335.095 376.801 332.357 376.757 336.784L375.73 339.952C376.559 358.973 385.133 339.002 388.546 340.098L387.87 349.078C390.332 338.719 394.076 349.051 396.79 344.422L396.951 348.576L397.842 342.671L398.734 351.42C402.899 352.321 405.25 345.176 408.406 344.457Z" fill="#6339FE"/>
<path fill-rule="evenodd" clip-rule="evenodd" d="M423.139 315.897L423.099 315.64L423.139 315.897Z" fill="#6339FE"/>
<path fill-rule="evenodd" clip-rule="evenodd" d="M505.278 170.891L504.873 170.583L505.278 170.891Z" fill="#6339FE"/>
<path fill-rule="evenodd" clip-rule="evenodd" d="M522.952 174.703L528.511 175.768C518.485 172.304 529.369 172.788 526.07 170.64L527.911 171.228C532.048 168.787 525.048 162.918 523.855 156.824L526.301 158.214L522.307 155.365L524.955 156.917C533.386 160.374 521.47 151.673 527.812 154.584L521.494 150.48C521.692 145.788 522.563 141.122 520.217 132.467L525.209 136.885C517.062 123.783 524.341 123.743 527.96 122.58L523.24 116.303C519.335 113.665 527.292 125.541 522.233 121.276L520.013 118.233C517.959 117.3 525.81 125.485 522.197 122.599L518.9 118.893C518.705 121.715 514.999 121.109 520.099 128.906C514.198 123.753 518.636 130.461 512.735 125.931C514.618 128.494 513.764 128.358 517.522 132.055C510.104 135.205 512.391 145.752 508.699 151.118C521.513 160.06 502.481 155.688 505.607 161.023L504.08 160.551C507.188 162.718 508.185 164.598 505.713 165.337L511.685 167.844C495.089 171.715 505.691 180.289 498.92 186.215C494.372 193.314 482.141 200.437 502.64 208.42L499.596 208.28C502.682 210.395 496.726 212.301 499.924 214.367L498.329 214.36C511.284 218.946 495.595 225.109 509.799 228.729C508.97 234.435 511.084 240.511 515.671 245.849L512.537 246.121C519.686 249.997 503.367 256.552 508.91 260.549C502.162 266.528 527.995 267.701 518.955 273.905C503.681 279.643 537.314 277.628 521.569 283.193C498.135 293.454 515.137 296.322 530.578 298.482C523.166 305.552 546.091 305.344 529.679 314.492C541.328 313.967 517.074 323.082 520.778 324.934L524.588 323.752C513.158 327.92 541.317 321.443 524.157 326.799L523.393 326.874C514.695 329.82 544.269 322.306 533.875 325.475L538.246 324.366C539.627 324.651 533.358 325.819 531.705 326.77C532.3 326.766 539.627 324.651 537.177 325.754C519.534 330.754 541.344 326.039 521.476 331.735C521.42 331.448 513.879 334.463 509.565 334.925C507.576 335.707 508.776 336.505 517.216 334.042L540.825 327.006L534.286 328.787C540.77 326.719 537.522 327.662 542.41 326.209C543.12 325.223 552.536 322.408 556.369 320.656L555.639 320.966C547.83 322.725 552.292 320.893 553.371 320.31L557.012 319.2C564.541 316.937 541.899 322.503 555.001 318.995C551.43 318.394 551.264 316.597 550.739 314.89C545.672 315.921 550.898 313.39 541.414 316.359C552.258 313 554.732 311.015 554.25 310.66L556.014 310.284C569.971 305.665 542.644 312.537 559.804 307.181C547.556 310.202 563.402 304.719 548.918 307.942L556.267 305.88L560.589 300.123C549.489 301.473 564.886 296.182 549.785 298.733C552.764 297.157 558.733 294.498 552.465 294.731L554.33 294.437C553.23 293.41 552.087 291.965 542.47 293.06C556.729 289.62 553.797 289.745 558.259 288.224C551.395 288.772 553.016 286.652 546.714 286.65C553.287 285.104 543.648 286.146 553.289 284.17C533.665 284.345 539.785 278.136 553.621 271.825L554.25 271.745C548.858 272.166 537.096 273.674 530.175 274.246L532.613 273.896C530.705 273.461 540.177 271.245 538.302 270.734L541.447 270.332C537.011 270.348 549.067 267.657 541.484 268.075L544.012 267.624L540.328 267.694C543.586 267.245 548.417 266.439 547.406 266.868C549.931 260.317 532.572 256.293 534.312 249.453L537.434 249.31L531.842 248.634L534.942 248.438C540.359 246.2 531.004 245.565 532.23 243.923L538.657 243.125C529.794 243.027 549.927 240.145 531.639 241.435L538.076 240.819C531.598 238.214 531.704 234.869 534.248 231.486C517.469 230.08 531.953 225.922 519.331 223.997L522.622 223.782C511.327 220.609 523.981 216.045 521.999 212.466C523.439 210.859 519.644 209.73 519.601 208.067L523.679 208.142C508.272 204.97 538.153 203.179 521.186 199.611L526.768 200.106C518.188 199.266 529.904 198.587 515.123 197.827L519.706 197.687C500.324 194.211 528.91 194.838 516.503 191.389L520.007 191.831C517.29 191.055 515.236 190.121 518.448 189.878L520.919 190.386C534.769 189.735 519.735 186.032 520.535 184.011L526.981 185.134C519.458 183.036 526.592 182.186 523.292 180.35L526.268 180.954L522.035 179.576L528.201 180.507C528.663 178.941 523.556 176.439 522.952 174.703Z" fill="#6339FE"/>
<path fill-rule="evenodd" clip-rule="evenodd" d="M517.766 151.853L517.602 151.786L517.766 151.853Z" fill="#6339FE"/>
<path fill-rule="evenodd" clip-rule="evenodd" d="M536.694 247.118L537.25 249.074L535.944 243.737L536.694 247.118Z" fill="#6339FE"/>
<path fill-rule="evenodd" clip-rule="evenodd" d="M522.921 235.133L521.982 231.627L525.414 246.816C528.016 255.37 521.211 229.489 522.921 235.133Z" fill="#6339FE"/>
<path fill-rule="evenodd" clip-rule="evenodd" d="M524.4 242.718C525.572 246.125 523.759 238.948 523.23 236.57C524.576 242.164 522.341 234.961 524.4 242.718Z" fill="#6339FE"/>
<path fill-rule="evenodd" clip-rule="evenodd" d="M555.511 227.248L555.509 227.729L555.511 227.248Z" fill="#6339FE"/>
<path fill-rule="evenodd" clip-rule="evenodd" d="M552.633 210.179L551.391 204.702C552.797 214.678 549.396 204.962 549.486 209.427L549.018 207.472C546.072 205.917 546.056 215.517 544.684 220.081L544.04 217.287C544.508 219.242 545.16 222.62 544.921 222.199L544.234 219.162C541.459 210.355 544.178 225.125 542.15 218.22L543.93 225.817C542.666 228.508 541.116 230.667 541.168 238.019L539.285 231.314C541.6 246.124 538.418 240.753 536.116 238.729L538.362 246.716C540.184 251.293 536.74 237.224 539.074 243.999L540.019 247.644C541.005 249.966 537.558 238.443 539.251 243.141L540.611 248.045C540.914 246.35 542.553 249.505 540.868 240.431C543.119 248.286 541.695 240.537 544.004 248.105C543.298 244.881 543.752 245.667 542.428 240.421C546.066 244.032 546.645 235.759 549.412 235.759C546.698 220.008 552.886 238.134 553.028 232.657L553.458 234.237C552.999 230.32 553.236 228.327 554.261 230.176L553.13 223.543C559.813 236.172 561.08 225.975 565.838 230.808C570.726 233.823 576.368 244.283 576.043 222.82L576.553 225.867C577.007 222.541 579.158 227.893 579.541 224.402L579.896 225.948C580.002 212.59 585.614 226.523 585.501 212.082C588.922 212.914 592.246 211.959 595.04 207.771L595.523 210.894C597.36 204.306 602.013 220.8 604 215.844C607.306 222.925 607.994 197.898 611.705 207.352C614.333 222.617 614.832 189.774 617.291 205.633C621.64 229.63 623.797 214.161 627.431 199.761C630.414 208.349 634.302 186.467 636.865 203.848C638.889 192.742 639.189 217.545 640.799 214.251L641.014 210.505C640.811 222.077 643.352 194.045 642.596 211.4L642.47 212.236C642.102 221.007 644.613 191.487 644.066 201.965L644.399 197.647C644.941 196.373 644.097 202.605 644.296 204.348C644.465 203.754 644.941 196.373 644.892 198.808C643.669 216.622 646.161 195.137 644.651 214.965C644.4 214.941 644.338 222.733 643.558 226.85C643.521 228.888 644.181 227.891 644.741 219.43L646.674 195.637L646.045 202.234C646.447 195.668 646.221 198.962 646.57 194.115C646.171 193.175 646.787 183.712 646.685 179.643L646.66 180.437C645.791 188.311 645.807 183.671 645.616 182.512L645.827 178.898C646.237 171.219 644.14 193.776 645.269 180.701C643.961 183.998 642.711 183.745 641.472 183.945C641.017 188.968 640.532 183.431 640.288 193.062C640.596 182.163 639.803 179.302 639.387 179.74L639.643 177.934C639.597 163.792 638.209 191.139 638.436 173.813C637.739 185.921 637.401 169.815 636.506 184.291L636.681 176.908L633.449 171.558C632.389 182.385 631.509 166.704 630.551 181.599C629.994 178.442 629.102 172.229 628.34 178.23L628.322 176.346C627.416 177.187 626.259 178.005 625.722 187.369C625.378 173.093 624.964 175.944 624.525 171.366C623.896 177.964 622.624 175.959 621.858 182.092C621.582 175.487 621.194 184.92 620.908 175.317C618.76 193.784 615.763 187.29 612.037 173.406L612.033 172.689C611.974 177.935 612.297 189.611 612.342 196.379L612.215 193.953C611.931 195.835 610.81 186.391 610.405 188.13L610.322 185.098C610.141 189.351 608.796 177.392 608.746 184.788L608.521 182.273L608.538 185.855C608.207 182.667 607.926 177.892 608.121 178.919C603.413 175.762 600.619 192.285 596.161 190.001L595.952 186.957L595.861 192.412L595.503 189.301C593.705 183.93 593.835 192.881 592.617 191.571L591.752 185.281C592.293 193.927 588.776 174.015 591.096 191.956L590.157 185.632C588.941 191.696 586.715 191.271 584.135 188.451C585.155 204.463 580.802 190.518 581.409 203.574L580.828 200.362C580.822 212.111 576.145 200.523 574.347 203.374C573.125 202.196 573.255 206.187 572.389 206.555L571.479 202.569C573.092 218.134 565.282 189.668 567.125 206.767L566.083 201.336C567.64 209.681 564.506 198.612 567.668 212.867L566.437 208.691C569.45 227.838 562.443 200.271 563.792 212.946L563.117 209.513C563.334 212.292 563.395 214.42 562.457 211.36L561.977 208.953C557.803 195.715 559.832 210.843 558.601 210.778L557.216 204.253C558.392 211.845 555.729 205.145 555.746 208.727L555.106 205.801L555.705 210.049L554.28 203.998C553.152 203.89 553.366 209.215 552.633 210.179Z" fill="#6339FE"/>
<path fill-rule="evenodd" clip-rule="evenodd" d="M637.477 170.115L637.457 171.357L637.477 170.115Z" fill="#6339FE"/>
<path fill-rule="evenodd" clip-rule="evenodd" d="M618.806 145.544L618.301 145.484L618.806 145.544Z" fill="#6339FE"/>
<path fill-rule="evenodd" clip-rule="evenodd" d="M648.565 144.974L653.46 144.396C644.505 144.116 653.148 141.347 649.121 140.295L650.876 140.211C652.174 136.057 643.442 133.582 639.187 130.225L641.692 130.002C639.965 130.015 636.792 130.161 637.162 129.944L639.976 129.77C647.933 127.832 634.495 128.015 640.625 126.673L633.829 127.397C631.273 124.641 629.233 121.604 622.455 119.379L628.492 118.497C614.916 117.537 619.797 114.204 621.522 111.191L614.263 112.051C610.066 113.593 622.99 112.608 616.777 114.166L613.431 114.446C611.327 115.339 621.89 113.556 617.64 114.7L613.103 115.306C614.707 116.365 611.895 118.04 620.167 118.07C612.983 119.379 620.103 119.417 613.299 120.805C616.178 120.784 615.487 121.197 620.285 120.661C617.067 125.329 624.749 128.731 624.878 133.119C639.298 133.48 622.85 138.002 627.923 139.75L626.473 140.006C630.057 140.285 631.884 141.19 630.246 142.366L636.335 142.422C624.963 149.652 634.379 154.419 630.223 160.686C627.711 167.696 618.458 174.747 637.822 178.592L635.17 178.877C638.219 180.344 633.411 182.626 636.585 183.98L635.21 184.143C647.478 186.919 635.044 193.279 648.138 195.824C647.678 201.002 649.771 206.477 654.146 211.343L651.305 211.589C657.802 215.194 643.728 221.229 648.716 224.815C643.074 230.032 666.039 231.748 658.274 237.266C644.992 241.765 674.86 241.51 661.009 245.89C640.483 254.005 654.96 257.223 668.556 260.816C661.664 266.624 681.939 268.942 667.136 275.707C677.333 276.6 655.501 281.908 658.759 284.006L662.188 283.511C651.889 285.783 677.054 283.563 661.605 286.22L660.958 286.194C653.095 287.672 679.679 284.85 670.327 286.359L674.255 285.952C675.438 286.29 669.859 286.617 668.321 287.211C668.847 287.227 675.438 286.29 673.204 286.878C657.295 289.131 676.873 287.902 659.041 290.25C658.976 290.098 652.117 291.629 648.337 291.433C646.517 291.906 647.487 292.695 655.088 291.689L676.447 288.803L670.541 289.45C676.367 288.477 673.492 288.917 677.888 288.251C678.504 287.389 687.073 286.213 690.552 285.156L689.878 285.202C682.729 285.776 686.854 284.745 687.833 284.329L691.121 283.774C697.864 282.651 677.599 284.712 689.319 283.338C686.204 282.259 686.122 280.433 685.725 278.681C681.199 279.041 685.908 277.342 677.349 278.815C687.12 277.068 689.421 275.55 688.939 275.094L690.574 275.001C703.188 272.467 678.613 275.397 693.997 272.587C683.028 273.822 697.333 270.51 684.348 271.761L690.917 270.773L694.951 265.578C685.114 265.672 698.919 262.272 685.453 263.067C688.172 261.853 693.516 259.884 688.021 259.455L689.634 259.311C688.638 258.053 687.724 256.58 679.223 256.827C691.906 254.864 689.327 254.639 693.289 253.496C687.271 253.47 688.797 251.622 683.215 250.99C689.019 249.966 680.54 250.265 689.065 248.986C672.058 247.563 677.194 242.38 689.033 236.933L689.658 236.908C684.856 237.026 674.436 237.788 668.281 238.12L670.477 237.848C668.751 237.32 676.984 235.625 675.378 235.107L678.1 234.852C674.222 234.697 684.754 232.566 678.057 232.709L680.258 232.314L677.069 232.287C679.846 231.889 684.138 231.387 683.236 231.71C685.067 225.41 669.469 221.046 670.709 214.577L673.425 214.444L668.44 213.859L671.233 213.634C675.768 211.528 667.596 210.915 668.583 209.296L674.207 208.529C666.369 208.434 683.965 205.526 667.9 207.004L673.518 206.36C667.734 203.893 667.596 200.709 669.697 197.356C654.887 196.62 667.479 191.994 655.636 190.899L658.532 190.51C647.892 188.304 658.155 183.226 655.579 179.877C656.539 178.329 652.994 177.733 652.586 176.225L656.134 175.739C642.09 175.039 667.656 168.866 652.152 168.125L657.112 167.7C649.506 168.288 659.507 165.722 646.635 167.646L650.472 166.617C633.068 166.982 657.865 162.397 646.439 161.605L649.498 161.327C647.016 161.06 645.068 160.687 647.84 159.87L649.98 159.742C661.917 156.294 648.117 156.03 648.328 154.079L654.13 153.597C647.206 153.476 653.225 150.92 650.001 150.127L652.653 149.842L648.818 149.789L654.224 149.055C654.348 147.441 649.452 146.519 648.565 144.974Z" fill="#6339FE"/>
<path fill-rule="evenodd" clip-rule="evenodd" d="M631.261 126.589L631.063 126.604L631.261 126.589Z" fill="#6339FE"/>
<path fill-rule="evenodd" clip-rule="evenodd" d="M682.231 290.345L680.963 290.746L682.231 290.345Z" fill="#6339FE"/>
<path fill-rule="evenodd" clip-rule="evenodd" d="M737.994 114.712L738.012 116.691L738.661 111.278L737.994 114.712Z" fill="#6339FE"/>
<path fill-rule="evenodd" clip-rule="evenodd" d="M745.755 102.738L745.925 99.1034L743.305 114.396C743.058 123.337 745.735 96.7182 745.755 102.738Z" fill="#6339FE"/>
<path fill-rule="evenodd" clip-rule="evenodd" d="M743.774 103.82C743.91 107.53 744.954 100.305 745.36 97.8723C744.529 103.5 744.415 95.8074 743.774 103.82Z" fill="#6339FE"/>
<path fill-rule="evenodd" clip-rule="evenodd" d="M809.385 120.536L813.143 116.944C804.497 121.463 808.486 112.266 803.429 113.082L804.763 111.789C799.899 104.476 787.824 108.211 779.849 107.301L781.466 105.102L778.171 108.497L779.847 106.152C782.638 97.7061 773.28 108.275 775.465 102.264L771.791 108.484C765.697 108.287 759.372 107.403 752.495 111.654L754.343 105.424C745.793 117.465 744.316 111.981 740.32 108.716L739.316 116.221C739.733 121.067 742.773 107.916 742.822 114.612L742.02 118.159C742.398 120.48 743.829 109.404 743.837 113.999L742.934 118.739C744.905 117.66 745.519 120.969 749.511 112.921C747.672 120.176 751.319 113.606 749.722 121C751.069 118.31 751.336 119.226 753.185 114.568C757.72 121.537 767.853 116.085 773.789 121.491C784.775 110.897 778.818 128.191 785.016 126.345L784.094 127.463C787.515 125.224 790.23 125.039 790.18 127.783L795.178 123.967C794.345 140.174 807.183 140.955 807.028 152.034C807.695 164.336 799.031 164.808 815.283 175.637L812.64 174.702C814.392 177.83 810.592 178.173 811.317 181.314L810.081 180.689C814.927 191.823 801.205 190.388 803.71 203.302C794.18 204.02 787.042 215.098 776.238 215.39L776.244 212.543C766.927 217.77 763.043 203.324 756.152 202.679C753.931 194.728 731.56 207.676 732.303 193.261C740.913 181.074 709.666 192.708 721.273 179.429C737.74 160.578 721.991 162.666 709.614 148.377C714.41 140.653 706.985 121.296 724.756 121.254C721.218 109.626 741.329 126.258 742.514 122.185L740.461 119.063C746.989 128.151 736.971 103.542 745.124 117.749L745.231 118.429C749.223 125.69 739.351 99.5665 743.827 108.255L742.475 104.352C743.179 102.721 744.354 108.637 745.756 109.796C745.847 109.152 743.209 102.648 744.74 104.539C750.436 120.395 746.398 99.7207 752.033 117.72C751.643 117.946 754.766 124.304 755.12 128.571C755.86 130.314 756.608 128.787 754.474 121.04L748.321 99.3882L749.708 105.516C747.696 99.7747 748.657 102.755 747.19 98.2955C745.385 98.3355 742.427 89.7894 739.778 86.981L740.009 87.6694C741.441 95.0487 738.788 91.5158 737.625 90.9206L736.041 87.9023C732.801 81.4118 739.222 101.981 735.017 90.2124C732.229 95.0873 727.914 97.222 723.751 99.7157C725.785 103.935 720.356 101.157 726.498 108.049C719.547 100.109 714.589 100.157 713.602 101.121L712.816 99.6994C701.613 91.3257 718.377 110.227 705.326 100.217C713.346 108.672 699.339 102.275 708.721 112.511L703.204 108.379L690.367 119.76C697.753 127.152 681.5 127.337 693.568 134.314C690.027 135.697 684.158 139.036 689.513 143.358L687.873 142.783C688.346 146.758 688.907 152.086 697.851 154.279C684.372 155.706 687.011 157.49 682.777 159.53C689.301 161.6 686.786 167.69 693.898 169.572C687.993 171.535 697.351 171.555 688.663 173.973C709.513 178.613 704.966 189.5 701.258 205.656L700.589 205.94C705.621 204.349 715.488 199.13 721.354 196.216L719.427 197.397C721.744 197.563 715.837 204.246 718.219 204.566L715.835 206.244C719.948 204.921 712.683 213.694 719.188 210.569L717.552 212.292L720.836 211.019C718.656 213.033 715.312 216.026 715.611 214.871C724.449 230.118 749.427 225.745 762.09 230.836L760.889 233.585L765.04 228.918L764.256 231.792C767.714 237.222 773.047 229.33 776.561 230.743L776.554 236.736C779.218 228.707 782.407 247.381 782.516 230.756L782.994 236.604C790.932 231.418 796.917 226.638 805.711 226.474C803.832 210.027 819.28 220.107 814.892 205.331L816.949 207.604C813.91 194.433 828.01 196.615 830.719 188.264C832.749 185.465 829.899 181.896 830.471 178.809L834.141 179.731C820.9 172.707 851.109 167.928 832.861 162.122L838.076 161.965C829.935 162.094 840.112 157.894 826.686 160.448L830.545 158.81C812.212 159.816 837.019 149.889 824.834 149.072L827.875 148.084C825.236 147.873 822.464 147.779 824.85 145.677L827.068 145.038C836.411 135.867 821.422 138.601 819.875 135.385L825.17 132.411C818.243 134.686 821.635 127.8 817.647 127.557L819.928 125.923L815.967 127.605L820.29 123.772C818.059 121.089 812.106 122.225 809.385 120.536Z" fill="#6339FE"/>
<path fill-rule="evenodd" clip-rule="evenodd" d="M788.821 101.25L788.721 101.497L788.821 101.25Z" fill="#6339FE"/>
<path fill-rule="evenodd" clip-rule="evenodd" d="M744.092 75.6641L745.189 76.6365L744.092 75.6641Z" fill="#6339FE"/>
<path fill-rule="evenodd" clip-rule="evenodd" d="M1008.58 12.8714L1006.75 13.5771L1012.09 12.6102L1008.58 12.8714Z" fill="#6339FE"/>
<path fill-rule="evenodd" clip-rule="evenodd" d="M1020.91 12.6225L1024.37 11.5663L1008.8 13.9307C1000.44 16.9986 1026.47 10.5385 1020.91 12.6225Z" fill="#6339FE"/>
<path fill-rule="evenodd" clip-rule="evenodd" d="M1025.65 6.86882C1022.3 8.4967 1029.52 6.79924 1031.98 6.3026C1026.34 7.53353 1033.29 4.71746 1025.65 6.86882Z" fill="#6339FE"/>
<path fill-rule="evenodd" clip-rule="evenodd" d="M1041.2 63.5694L1040.69 63.5098L1041.2 63.5694Z" fill="#6339FE"/>
<path fill-rule="evenodd" clip-rule="evenodd" d="M1060.38 68.6108L1065.75 67.0764C1055.58 67.5351 1064.46 61.8978 1059.62 60.4062L1061.57 60.1352C1061.82 52.9339 1051.31 49.3694 1045.44 43.9528L1048.27 43.4376C1046.34 43.6326 1042.85 44.2459 1043.21 43.7197L1046.25 43.1114C1054.6 39.1299 1039.58 40.6557 1046.14 37.8064L1038.6 39.5763C1034.95 35.0894 1031.82 30.0065 1023.4 26.6689L1030.06 24.6512C1014.5 24.1617 1018.88 17.6952 1019.93 12.5215L1012.09 14.6655C1007.75 17.5664 1022.02 14.868 1015.61 18.2153L1011.91 18.9745C1009.9 20.639 1021.09 16.6343 1016.71 18.9905L1011.86 20.3679C1013.93 22.0409 1011.22 25.1209 1020.54 24.6487C1012.74 27.3374 1020.86 26.9387 1013.53 29.804C1016.86 29.571 1016.12 30.2603 1021.44 29.0595C1019.24 37.4628 1028.9 42.823 1030.35 50.3616C1046.53 49.4062 1029.49 58.879 1035.66 61.4916L1034.18 61.9921C1038.3 62.235 1040.6 63.686 1039.19 65.8435L1045.89 65.3014C1035.42 78.9569 1047.36 86.0257 1044.55 97.5544C1043.76 109.901 1035.56 123.093 1058.46 127.749L1055.52 128.44C1059.33 130.556 1054.71 135.253 1058.72 137.223L1057.21 137.618C1071.59 140.974 1059.67 153.503 1075.01 156.205C1071.75 169.911 1099.63 168.283 1101.64 159.587L1102.29 162.486C1108.47 154.32 1119.12 167.973 1125.65 161.218C1134.94 165.863 1137.92 140.072 1147.65 146.96C1155.85 160.035 1155.1 127.426 1163.09 141.214C1177.69 161.281 1183.47 144.202 1189.49 128.324C1200.02 134.061 1203.46 111.186 1215.91 125.259C1217.19 113.762 1227.48 136.033 1231.11 131.755L1230.06 128.216C1234.48 138.788 1229.54 111.879 1234.88 127.975L1234.82 128.747C1237.82 136.746 1231.7 108.722 1234.78 118.431L1233.86 114.277C1234.53 112.809 1235.19 118.941 1236.38 120.366C1236.54 119.676 1234.53 112.809 1235.81 115.066C1240.31 131.768 1237.29 110.766 1242.27 129.507C1241.75 129.664 1245.11 136.515 1244.88 140.848C1245.71 142.67 1247.2 141.292 1244.93 133.353L1238.84 111.044L1240.23 117.236C1238.32 111.201 1239.17 114.265 1237.78 109.625C1236.25 109.218 1233.74 100.26 1231.81 96.7839L1231.99 97.5161C1233.23 105.019 1231.22 100.893 1230.39 100.001L1229.33 96.5913C1227.11 89.5078 1231.44 111.011 1228.64 98.6274C1226.73 102.365 1223.54 103.096 1220.56 103.991C1221.34 108.888 1218.15 104.267 1221.17 113.068C1217.74 103.007 1214.82 101.011 1214.11 101.624L1213.88 99.8552C1208.84 86.9282 1215.07 112.733 1209.45 96.7543C1212.09 108.458 1205.67 93.9417 1208.3 107.637L1206.3 100.77L1197.02 97.987C1197.61 108.691 1191.13 94.6372 1192.93 109.121C1190.73 106.51 1187.02 101.297 1186.44 107.397L1186.17 105.705C1184.2 107.164 1181.6 108.517 1182.25 117.828C1178.3 104.564 1178.02 107.549 1176.01 103.423C1176.06 110.121 1172.59 109.107 1171.67 115.347C1169.9 109.189 1170.4 118.441 1168.19 109.42C1165.96 128.602 1156.54 124.572 1146.88 113.239L1146.8 112.589C1147.05 117.771 1148.53 129.034 1149.02 135.546L1148.67 133.332C1147.81 135.438 1144.67 126.813 1143.79 128.866L1143.32 125.768C1143.09 130.1 1139.38 119.225 1139.52 126.573L1138.88 124.166L1138.81 127.807C1138.14 124.855 1137.14 120.362 1137.87 121.171C1126.65 121.142 1119.02 139.634 1107.54 140.213L1107.4 137.285L1106.29 142.921L1105.86 139.928C1102.15 135.593 1101.08 144.825 1098.18 144.251L1097.03 138.2C1096.77 146.9 1091.7 128.387 1094.22 145.618L1092.99 139.667C1098.74 150.921 1060.85 138.563 1099.45 156.098C1082.76 156.771 1095.47 147.331 1081.9 146.804L1084.95 145.757C1072.52 143.318 1082.4 133.333 1078.58 127.985C1079.13 125.012 1074.99 124.406 1074.14 121.962L1078.01 120.694C1062.07 120.988 1088.73 107.49 1071.28 108.05L1076.61 106.721C1068.33 108.559 1078.78 103.124 1064.92 107.703L1068.9 105.639C1049.67 108.262 1075.91 97.4331 1062.92 97.3472L1066.35 96.5757C1063.5 96.4174 1061.05 95.8385 1063.97 94.1642L1066.41 93.8122C1078.67 86.6772 1063.21 87.64 1062.76 84.1553L1069.12 82.6405C1061.35 83.2623 1067.36 78.345 1063.46 77.2595L1066.39 76.5162L1061.97 76.6474L1067.92 74.9327C1067.53 72.0453 1061.8 71.0554 1060.38 68.6108Z" fill="#6339FE"/>
<path fill-rule="evenodd" clip-rule="evenodd" d="M1047.32 50.8619L1047.17 50.9934L1047.32 50.8619Z" fill="#6339FE"/>
<path fill-rule="evenodd" clip-rule="evenodd" d="M1223.4 107.049L1224.14 108.31L1223.4 107.049Z" fill="#6339FE"/>
<path fill-rule="evenodd" clip-rule="evenodd" d="M926.985 95.5466L926.44 97.4905L928.494 92.6455L926.985 95.5466Z" fill="#6339FE"/>
<path fill-rule="evenodd" clip-rule="evenodd" d="M923.483 71.9106L924.687 68.4538L918.058 81.8856C915.469 90.794 925.151 65.9963 923.483 71.9106Z" fill="#6339FE"/>
<path fill-rule="evenodd" clip-rule="evenodd" d="M925.963 78.0288C925.13 81.876 928.059 75.2208 929.069 73.0799C926.774 78.164 928.722 70.4871 925.963 78.0288Z" fill="#6339FE"/>
<path fill-rule="evenodd" clip-rule="evenodd" d="M971.883 120.238L971.312 120.344L971.883 120.238Z" fill="#6339FE"/>
<path fill-rule="evenodd" clip-rule="evenodd" d="M1000.05 123.859L1004.95 122.449C994.8 122.202 1001.51 115.588 996.122 113.622L997.862 113.126C995.068 103.621 983.397 99.6465 976.25 94.359L978.543 93.0814C976.898 93.6586 974.053 95.1701 974.229 94.6095L976.635 93.041C982.459 86.4374 969.863 91.4214 974.428 86.4458L968.738 90.4411C962.701 87.3546 955.501 85.0054 947.474 86.8343L950.982 81.4569C939.267 89.772 939.509 82.6835 936.368 77.092L933.581 84.1679C932.759 89.1941 939.047 77.8374 937.299 84.7154L935.748 87.7431C935.348 90.2819 939.671 80.0026 938.403 84.6718L936.372 88.9359C938.474 89.0155 938.182 92.7841 944.168 86.8407C940.374 93.4936 945.771 88.5293 942.124 94.6944C944.284 92.6838 944.261 93.6047 947.421 89.7726C950.37 96.7214 962.55 95.073 965.202 104.942C979.318 100.893 967.057 114.603 973.429 116.393L972.127 116.946C976.034 116.684 978.697 118.226 978.06 120.623L984.422 119.744C981.017 134.554 987.061 143.226 982.909 154.465C982.687 170.232 970.724 166.685 977.388 183.781L975.51 181.723C975.581 186.067 970.676 183.837 970.822 188.635L970.104 187.36C972.509 206.811 956.019 191.761 951.478 207.235C940.387 211.033 930.996 203.661 917.25 203.848L918.942 201.429C908.586 198.05 913.437 181.776 905.695 177.591C909.802 167.221 882.517 164.045 889.979 151.278C903.891 144.521 873.47 136.601 887.938 130.458C909.785 120.818 900.313 112.143 891.416 92.2905C904.087 87.7608 896.554 63.7446 915.608 67.0144C914.374 55.7533 932.76 72.4884 935.198 67.93L933.327 64.7756C939.711 73.9715 930.872 48.6874 938.624 63.195L938.736 63.8764C942.691 71.2482 933.585 44.4983 937.902 53.4176L936.586 49.4811C937.507 47.7536 938.42 53.8049 939.933 54.8635C940.043 54.1485 937.535 47.6809 939.081 49.5149C944.627 65.506 941.05 44.5481 946.709 62.6171C946.181 62.9024 949.583 69.1116 949.598 73.6008C950.513 75.3385 951.584 73.5472 949.383 65.8555L943.077 44.1734L944.523 50.3635C942.398 44.5225 943.349 47.4597 941.959 43.0689C939.923 43.1437 936.979 34.6743 934.307 31.86L934.548 32.4262C935.973 39.9612 933.196 36.3412 932.073 35.785L930.491 32.7515C927.351 26.1876 933.329 47.0976 929.409 35.2153C926.393 40.0802 921.824 42.2629 917.459 44.7847C919.172 49.0994 913.811 46.2121 919.537 53.4398C913.108 45.1133 908.173 44.9003 907.14 45.9464L906.506 44.4537C895.969 35.0774 911.077 56.0597 898.775 44.3345C905.522 53.1332 892.314 44.2837 900.528 55.9828L895.713 51.0412L882.913 59.0272C888.637 68.1996 873.77 63.5168 883.44 74.0512C879.54 74.1885 872.164 74.7687 875.011 80.3636L873.749 79.1987C871.9 82.778 872.02 88.0729 878.976 93.7453C866.464 89.4599 868.403 92.2205 863.993 92.2705C868.993 96.9514 865.83 101.332 870.094 106.507C864.071 105.541 871.839 110.201 863.149 108.241C875.755 122.631 871.243 131.351 858.595 144.011L857.869 143.833C862.841 145.245 873.511 146.303 879.784 147.163L877.632 147.105C879.307 148.824 870.754 151.362 872.472 153.184L869.632 153.175C873.606 154.464 862.744 158.104 869.764 159.193L867.53 159.777L871.164 160.543C868.321 161.082 864.001 161.762 864.712 160.792C868.233 179.951 885.529 192.167 897.332 205.501L894.86 206.916L900.772 206.228L898.531 207.908C898.311 215.048 906.708 212.698 909.025 216.209L905.643 221.047C912.945 215.699 905.694 232.446 915.481 218.753L912.624 223.854C924.413 222.676 932.412 226.63 941.39 231.079C948.443 214.842 956.848 227.128 961.539 213.959L962.29 216.981C968.383 206.557 978.876 213.462 984.238 202.985L989.435 193.792L992.248 196.243C984.694 183.595 1012.72 191.862 1003.17 179.517L1007.64 181.566C1000.89 178.177 1013.1 179.249 999.658 175.419L1003.45 175.448C985.958 167.082 1011.13 169.455 999.565 161.972L1002.78 162.732C1000.28 161.002 998.236 159.257 1001.11 158.521L1003.38 159.136C1015.73 155.231 1001.49 149.248 1001.8 145.107L1007.7 145.092C1000.71 143.506 1006.82 138.419 1003.58 135.787L1006.26 135.56L1002.36 134.725L1007.81 133.505C1008.23 129.073 1002.96 126.816 1000.05 123.859Z" fill="#6339FE"/>
<path fill-rule="evenodd" clip-rule="evenodd" d="M977.951 101.25L977.851 101.497L977.951 101.25Z" fill="#6339FE"/>
<path fill-rule="evenodd" clip-rule="evenodd" d="M926.976 25.1943L927.958 26.2161L926.976 25.1943Z" fill="#6339FE"/>
<path fill-rule="evenodd" clip-rule="evenodd" d="M724.419 492.473L721.349 494.599L730.402 490.755L724.419 492.473Z" fill="#6339FE"/>
<path fill-rule="evenodd" clip-rule="evenodd" d="M747.13 489.623L752.903 486.281L726.544 496.308C712.656 505.218 756.315 483.668 747.13 489.623Z" fill="#6339FE"/>
<path fill-rule="evenodd" clip-rule="evenodd" d="M740.19 493.573C734.719 497.95 746.874 492.378 750.937 490.654C741.576 494.902 752.821 486.703 740.19 493.573Z" fill="#6339FE"/>
<path fill-rule="evenodd" clip-rule="evenodd" d="M789.313 599.673L788.229 599.38L789.313 599.673Z" fill="#6339FE"/>
<path fill-rule="evenodd" clip-rule="evenodd" d="M836.576 611.005L846.384 609.945C829.257 606.442 847.926 596.568 837.219 592.227L840.661 591.983C838.764 576.171 817.644 566.391 805.389 554.672L810.387 553.768C806.891 554.035 800.572 555.257 801.102 554.119L806.583 553.009C820.959 544.957 793.466 547.317 804.673 541.646L791.353 545.171C783.408 535.701 776.081 525.299 760.437 519.768L771.463 514.416C743.877 515.66 750.221 502.558 750.549 491.096L737.606 497.749C730.776 504.483 754.789 495.566 744.342 503.775L738.182 506.269C735.119 509.944 753.578 499.428 746.44 505.137L738.396 509.161C742.464 512.181 738.377 518.665 754.727 515.862C741.688 522.737 755.858 520.616 743.594 527.528C749.441 526.384 748.408 527.979 757.414 524.582C755.597 541.788 774.338 551.482 779.269 566.98C809.012 566.343 779.861 583.894 792.268 589.705L789.495 590.334C797.241 591.428 802.011 594.759 799.952 598.859L812.557 599.168C791.202 623.452 803.729 640.29 794.427 659.701C790.351 686.205 764.916 681.179 782.476 715.844L778.565 712.148C779.366 720.452 769.715 717.854 770.733 726.37L768.975 724.316C773.513 754.407 743.188 730.396 738.022 759.554C719.728 767.626 699.453 763.269 676.773 765.777L678.146 760.508C657.521 767.561 651.9 741.034 638.029 736.698C634.301 717.767 590.872 740.468 587.781 717.068C598.935 696.201 549.939 713.839 567.31 689.42C596.264 649.918 565.631 650.994 530.681 635.034C545.178 613.539 507.713 596.577 538.935 575.103C519.431 565.55 563.979 556.678 558.599 547.58L551.742 547.387C572.376 546.174 523.144 536.399 553.741 537.773L555.154 538.269C570.665 538.561 518.669 528.986 537.201 530.431L529.646 528.891C527.55 526.19 538.274 529.975 541.386 528.654C540.475 527.701 527.55 526.19 531.967 525.409C563.126 530.197 525.493 518.359 560.287 524.402C560.242 525.639 573.833 525.286 581.188 529.041C584.706 528.826 583.132 525.416 568.272 522.777L526.72 515.281L538.189 517.837C526.772 516.598 532.385 517.441 523.874 516.185C522.14 519.112 505.505 516.619 498.369 518.006L499.673 518.243C513.359 522.293 504.97 523.116 502.911 524.233L496.569 523.761C483.055 522.803 522.669 531.549 499.661 527.318C505.033 535.202 504.303 543.181 504.261 550.991C513.121 552.768 503.27 557.011 520.377 556.139C500.838 556.949 495.768 563.058 496.344 565.309L493.175 564.706C467.709 569.006 516.47 569.911 485.514 574.107C507.126 574.305 478.217 581.831 503.831 583.252L490.73 584.31L480.968 607.263C499.974 610.272 472.192 621.946 498.521 622.515C492.783 626.899 482.004 635.371 492.595 638.544L489.292 638.668C489.73 644.326 496.624 651.32 513.689 650.648C489.844 659.068 495.837 660.359 489.136 665.456C502.15 665.835 502.331 674.766 514.915 676.667C504.34 681.887 521.758 679.362 506.039 686.34C544.108 689.654 540.58 709.839 530.091 742.719L528.964 743.197C537.702 739.913 555.346 729.865 565.983 724.192L562.351 726.526C567.182 726.422 556.627 739 561.719 739.212L557.059 742.407C565.229 739.426 552.127 755.702 564.802 749.163L561.79 752.511L568.239 749.652C564.1 753.479 557.964 759.31 558.251 757.301C580.955 779.618 618.909 780.424 644.046 790.569L641.021 795.079L650.085 787.64L647.547 792.552C651.861 803.016 664.467 789.75 670.553 793.497L667.754 804.059C676.365 790.481 672.776 824.996 681.412 794.912L679.346 805.711C696.589 796.807 709.764 804.726 725.577 805.134C734.475 774.025 752.483 794.379 757.745 769.623L759.675 774.769C765.68 751.767 792.441 769.318 798.823 749.442L805.978 732.283L811.53 736.561C795.549 713.824 847.192 728.236 827.874 705.395L836.256 709.627C823.379 702.86 845.47 705.228 820.879 697.713L829.495 698.62C798.474 682.817 845.552 689.306 824.887 675.376L830.926 677.073C826.383 673.828 822.744 670.625 828.464 669.779L832.607 671.185C856.932 666.883 830.864 654.395 832.117 647.35L843.438 648.812C830.223 644.38 842.918 637.59 837.178 632.418L842.441 632.436L834.967 630.192L845.832 629.535C846.839 622.656 837.662 616.996 836.576 611.005Z" fill="#6339FE"/>
<path fill-rule="evenodd" clip-rule="evenodd" d="M503.882 517.888L506.269 517.217L503.882 517.888Z" fill="#6339FE"/>
<path fill-rule="evenodd" clip-rule="evenodd" d="M800.3 443.13L799.864 446.945L802.896 436.821L800.3 443.13Z" fill="#6339FE"/>
<path fill-rule="evenodd" clip-rule="evenodd" d="M805.148 426.522L806.324 419.447L796.537 448.194C794.557 464.995 806.571 415.026 805.148 426.522Z" fill="#6339FE"/>
<path fill-rule="evenodd" clip-rule="evenodd" d="M799.016 440.223C798.859 447.276 802.26 433.502 803.534 428.92C800.981 439.526 801.909 425.089 799.016 440.223Z" fill="#6339FE"/>
<path fill-rule="evenodd" clip-rule="evenodd" d="M908.89 435.161L908.217 435.995L908.89 435.161Z" fill="#6339FE"/>
<path fill-rule="evenodd" clip-rule="evenodd" d="M939.987 414.412L942.133 404.483C933.841 421.316 931.694 402.29 925.028 408.985L926.144 405.505C913.501 399.279 898.293 413.344 883.496 418.338L884.986 413.411L881.157 421.846L882.828 416.474C883.188 399.574 872.415 425.251 873.325 412.411L869.736 425.775C858.578 427.998 846.83 429.121 833.573 439.78L835.77 427.498C821.118 452.185 813.676 439.885 805.34 433.916L802.296 448.275C803.367 457.636 811.439 432.43 811.325 445.546L809.593 452.232C810.692 456.857 813.531 435.468 813.888 444.457L812.009 453.414C816.866 451.475 819.948 458.448 827.367 442.906C825.268 457.6 831.863 444.187 830.377 458.437C832.646 452.872 833.457 454.491 835.906 444.986C848.987 455.443 866.832 444.247 881.592 448.041C894.094 421.199 895.87 456.518 906.077 448.564L905.561 451.421C909.534 445.072 914.126 442.509 916.764 446.542L921.825 435.191C936.582 463.709 959.784 449.134 978.008 462.254C999.469 472.527 1016.46 495.986 1044.22 461.746L1042.92 466.962C1050.09 462.197 1054.46 473.351 1061.3 468.236L1060.9 470.923C1078.99 449.684 1091.45 478.623 1109.12 455.358C1126.19 460.379 1146.41 458.418 1165.63 452.65L1165.1 458.52C1180.92 447.507 1192.68 478.709 1208.36 470.702C1222.95 484.872 1241.86 440.528 1256.02 458.929C1264.31 487.618 1279.44 428.559 1286.92 458.264C1303.87 501.986 1324.01 472.333 1340.97 445.377C1358.6 460.16 1372.33 419.484 1390.85 450.33C1396.54 429.694 1409.81 474.488 1418 468.187L1416.91 461.105C1422.66 482.221 1420.05 431.248 1426.09 462.666L1425.93 464.025C1429.73 479.957 1424.65 426.228 1428.25 445.063L1427.34 437.231C1428.99 434.872 1428.81 446.236 1430.85 449.296C1431.33 448.235 1428.99 434.872 1430.81 439.439C1435.69 471.599 1434.54 432.087 1440.05 468.211C1438.95 468.373 1444.07 482.333 1442.54 489.917C1443.87 493.645 1447.08 491.607 1444.41 476.299L1437.34 433.293L1438.76 445.081C1436.23 433.455 1437.35 439.298 1435.82 430.441C1432.94 428.901 1430.09 411.708 1427.18 404.416L1427.44 405.901C1428.32 420.19 1425.31 411.651 1424.06 409.853L1422.79 403.09C1420.3 389.363 1423.72 430.302 1421.19 406.592C1416.93 412.696 1411.11 412.653 1405.37 413.248C1405.52 422.326 1400.86 412.649 1404.05 430.066C1400.38 410.214 1395.76 405.303 1394.26 406.125L1394.24 402.881C1388.64 377.164 1393.03 427.077 1387.19 395.57C1388.77 417.78 1381.46 388.617 1382.08 415.101L1380.64 401.664L1365.15 392.533C1362.61 412.571 1356 384.21 1354.15 411.56C1351.14 405.782 1346.59 394.77 1343.28 405.87L1343.57 402.493C1339.49 404.352 1334.47 406.054 1331.9 423.278C1330.13 397.283 1328.54 402.559 1326.73 394.37C1324 406.569 1318.6 403.283 1314.28 414.501C1313.73 402.587 1310.73 419.812 1310.75 402.258C1298.68 437.383 1283.1 424.978 1271.43 398.037L1271.48 396.849C1269.53 406.385 1266.57 427.335 1264.28 439.536L1264.61 435.223C1262.09 438.316 1260.78 420.961 1258.14 424.046L1258.8 418.487C1256.13 426.003 1254.85 404.217 1251.5 417.418L1251.6 412.712L1249.6 419.205C1250.03 413.378 1250.57 404.747 1251.38 406.67C1231.44 399.553 1208.01 427.844 1187.09 421.884L1188.27 416.534L1183.33 425.992L1184.36 420.404C1180.01 410.164 1173 426.085 1167.97 423.252L1169.25 411.726C1164.01 427.018 1165.47 390.879 1160.08 423.288L1161.41 411.866C1149.82 421.941 1139 420.459 1129.04 414.444C1116.58 443.415 1109.99 414.802 1097.87 437.005L1098.73 431.179C1083.95 450.031 1074.26 426.172 1061.51 428.578C1056.65 425.552 1052.31 431.931 1046.9 431.532L1047.84 424.14C1034.94 450.78 1033.44 396.758 1019.74 425.884L1021.85 416.155C1018.09 431.308 1017.27 410.005 1013.7 436.239L1013.32 428.059C1001.64 461.789 1004.75 410.474 993.565 431.846L995.107 425.731C992.345 430.278 989.224 433.689 988.67 427.728L990.08 423.633C987.979 398.023 976.501 424.368 969.885 422.453L972.548 410.833C967.066 423.957 963.305 410.585 958.04 416.072L959.332 410.677L955.769 418.141L957.787 407.039L939.987 414.412Z" fill="#6339FE"/>
<path fill-rule="evenodd" clip-rule="evenodd" d="M883.391 410.16L883.282 410.549L883.391 410.16Z" fill="#6339FE"/>
<path fill-rule="evenodd" clip-rule="evenodd" d="M1004.27 707.742L1007.79 708.301L998.443 705.147L1004.27 707.742Z" fill="#6339FE"/>
<path fill-rule="evenodd" clip-rule="evenodd" d="M988.348 702.931L981.913 701.485L1008.32 711.577C1024.34 714.637 977.627 700.908 988.348 702.931Z" fill="#6339FE"/>
<path fill-rule="evenodd" clip-rule="evenodd" d="M988.274 702.815C995.126 703.468 982.408 699.483 978.116 698.086C987.981 701.158 974.18 699.141 988.274 702.815Z" fill="#6339FE"/>
<path fill-rule="evenodd" clip-rule="evenodd" d="M1021.66 618.124L1022.41 618.764L1021.66 618.124Z" fill="#6339FE"/>
<path fill-rule="evenodd" clip-rule="evenodd" d="M993.191 582.263L984.508 577.739C998.258 589.566 980.649 586.904 985.656 594.793L982.558 592.998C974.553 603.115 985.083 620.539 987.481 634.449L983.057 632.285L990.528 637.137L985.605 634.811C969.841 631.427 992.178 645.518 980.197 642.643L992.447 647.891C992.825 658.057 991.953 668.317 1000.43 680.893L988.98 677.541C1010.58 692.94 997.687 697.046 990.774 703.651L1004.38 707.454C1013.6 707.583 990.228 698.596 1003.01 699.886L1009.07 701.98C1013.69 701.572 993.428 696.864 1002.1 697.725L1010.55 700.107C1009.36 696.008 1016.42 694.38 1002.51 686.537C1016.31 690.071 1004.39 683.001 1017.66 686.014C1012.84 683.335 1014.43 683.032 1005.68 679.656C1017.48 670.356 1009.19 653.594 1014.85 641.861C991.682 625.512 1024.82 631.286 1018.86 620.876L1021.38 622.171C1016.08 617.208 1014.44 612.489 1018.45 611.221L1008.93 604.132C1035.75 597.782 1028.86 574.891 1047.54 564.412C1063.98 550.403 1089.76 546.237 1068.86 510.324L1073 513.418C1071.29 505.622 1082.34 506.591 1080.22 498.844L1082.55 500.408C1070.31 476.494 1099.12 478.445 1085.69 453.478C1095.04 440.865 1105.94 426.844 1110.52 409.099L1114.79 412.508C1114.23 394.957 1144.91 402.896 1146.4 387.146C1164.39 384.917 1140.59 344.765 1161.91 344.858C1187.03 356.395 1151.9 308.239 1177.39 320.927C1219.04 338.203 1211.4 310.781 1207.51 280.46C1228.86 281.785 1216.47 241.575 1246.87 255.539C1240.79 235.289 1272.74 265.206 1274.93 255.751L1270.9 250.437C1284.74 265.522 1259.11 222.661 1277.9 246.654L1278.46 247.972C1288.39 259.928 1260.39 215.525 1271.43 230.244L1267.33 223.773C1267.45 220.735 1272.49 230.725 1275.19 232.441C1275.03 231.329 1267.56 220.69 1270.77 223.619C1288.43 249.586 1270.5 215.023 1290.03 244.239C1289.34 244.909 1298.63 254.774 1301.14 262.29C1303.6 264.913 1304.81 261.665 1296.53 249.256L1273.16 214.331L1279.12 224.177C1272.28 215.014 1275.57 219.715 1270.72 212.631C1267.99 212.858 1258.28 199.125 1253.09 194.553L1253.84 195.602C1260.57 207.984 1254.71 202.138 1252.78 201.215L1248.75 196.209C1240.78 185.408 1261.41 219.818 1248.9 200.188C1248.37 208.372 1243.57 211.968 1239.37 215.99C1243.8 223.686 1235.53 218.242 1246.58 231.092C1233.93 216.369 1227.84 215.347 1226.96 216.902L1225.27 214.202C1207.93 196.246 1236.58 235.212 1215.7 212.666C1228.54 230.168 1207.39 210.908 1221.78 231.918L1213.48 221.941L1195.61 225.176C1204.76 242.253 1182.8 224.832 1197.35 246.955C1191.5 244.464 1181.03 239.207 1185.01 249.767L1183.27 246.962C1180.88 251.026 1177.62 255.52 1186.66 269.593C1168.8 251.986 1170.67 256.976 1163.65 252.307C1169.55 262.739 1162.71 264.151 1166.86 274.645C1158.11 266.789 1167.48 280.474 1155.59 268.668C1168.37 299.379 1151.26 301.794 1125.45 295.46L1124.7 294.719C1130.32 302.162 1144.1 317.397 1151.8 326.694L1148.9 323.76C1149.77 327.556 1136.26 318.178 1137.07 322.124L1133.16 318.125C1137.45 324.762 1120.47 312.565 1128.44 323.238L1125.22 320.436L1128.68 325.814C1124.69 322.219 1118.51 316.506 1120.37 316.962C1103.5 329.226 1112.58 363.812 1096.89 376.693L1093.07 372.904L1098.09 381.843L1094.09 378.068C1083.56 376.135 1092.67 389.931 1087.61 392.204L1078.93 385.376C1088.61 397.315 1059.59 377.913 1083.38 398.477L1074.7 391.649C1076.76 405.767 1069.82 413.318 1059.26 418.297C1077.62 441.416 1052.15 435.002 1066.13 455.064L1061.49 451.81C1072.22 472.448 1048.67 470.566 1045.97 482.907L1043.44 496.36L1037.42 492.757C1056.17 513.598 1007.94 495.012 1028.91 517.461L1020.96 512.065C1033.19 520.743 1013.95 513.798 1036.07 526.236L1028.58 523.508C1054.85 545.261 1009.86 524.74 1025.18 541.562L1020.26 538.238C1023.39 542.134 1025.42 545.752 1019.86 544.254L1016.4 541.744C992.628 535.29 1012.38 553.587 1008.35 558.285L998.803 552.449C1008.84 561.186 995.308 560.153 998.602 566.467L994.163 563.687L999.587 568.786L990.21 563.935L993.191 582.263Z" fill="#6339FE"/>
<path fill-rule="evenodd" clip-rule="evenodd" d="M977.778 643.616L978.025 643.716L977.778 643.616Z" fill="#6339FE"/>
<path fill-rule="evenodd" clip-rule="evenodd" d="M1241.66 195.161L1243.71 196.758L1241.66 195.161Z" fill="#6339FE"/>
<path fill-rule="evenodd" clip-rule="evenodd" d="M303.804 942.694L302.557 933.014C297.117 953.02 284.279 933.906 276.078 942.277L276.48 938.827C253.472 933.993 231.368 956.496 205.929 956.779L207.569 951.998L202.577 959.872L204.123 954.575C201.765 937.88 187.586 961.473 186.588 948.717L182.628 961.66L116.633 963.384L120.3 951.803C94.1834 967.78 79.4679 948.783 65.4504 936.853L57.9048 948.967C59.2386 959.291 76.6318 939.902 75.4188 953.163L71.5289 958.651C73.2269 964.118 80.3848 944.496 80.0417 953.799L76.0933 961.787C85.345 963.366 91.3615 973 105.337 962.117C101.333 976.13 113.348 966.635 111.237 980.711C115.331 976.436 116.918 978.856 120.974 970.389C146.665 988.872 181.23 978.589 209.615 986.275C225.564 963.044 239.782 992.152 257.073 983.511L257.17 986.378C262.54 979.396 269.941 975.882 276.534 978.961L280.922 967.321C321.231 988.012 359.214 962.48 398.705 948.125C441.448 939.382 504.022 865.85 449.934 821.186L455.377 821.412C446.628 808.853 452.511 793.114 443.233 782.389L445.612 781.255C413.096 765.299 410.018 730.347 374.923 724.582C359.96 694.305 312.037 683.22 281.026 688.838L281.836 683.42C253.809 691.67 230.731 662.054 205.097 666.565C187.377 650.453 138.374 686.357 130.995 646.548C142.52 629.156 91.0584 615.304 115.693 595.687C174.532 582.522 143.353 558.141 181.242 523.305C213.406 525.241 243.518 489.809 273.653 521.255C290.114 502.014 300.701 545.72 314.608 544.641L315.606 537.907C315.807 559.044 334.367 512.801 330.027 543.168L329.06 544.26C327.347 559.713 346.101 510.851 342.526 528.951L345.449 521.77C349.759 520.497 343.143 530.113 345.008 533.776C346.29 532.984 349.759 520.497 350.582 525.221C340.621 554.943 361.742 521.04 349.601 553.977C347.853 553.667 347.389 567.229 341.025 573.335C340.713 576.994 346.236 576.381 351.516 562.445C357.91 547.912 365.395 535.948 366.431 523.442L361.373 533.943C364.488 522.968 362.604 528.346 365.412 520.162C360.965 517.595 366.218 501.691 364.584 494.031L364.119 495.28C356.94 507.672 356.063 499.01 354.604 496.598L355.727 490.305C358.397 477.106 341.909 513.868 350.166 492.295C337.587 495.037 325.437 491.905 313.149 489.326C310.047 497.697 304.046 486.632 304.343 503.893C304.068 483.9 295.501 479.246 292.037 479.727L293.135 476.6C288.876 451.617 283.519 499.369 279.823 468.825C277.462 490.371 268.679 461.615 264.105 486.885L263.92 473.846L230.433 463.809C223.912 482.294 209.46 454.832 204.392 483.776C197.826 479.881 184.304 472.195 178.033 484.82L177.938 481.519C168.256 485.815 155.685 491.215 156.171 508.334C143.056 486.368 140.665 492.457 132.644 486.89C131.149 498.168 115.97 501.086 114.751 522.393C105.558 515.531 111.561 534.514 98.9653 523.589C98.6378 578.797 75.8979 595.259 64.8831 644.919L63.6372 644.767C73.4919 647.327 93.7717 645.585 105.373 644.495L101.485 645.589C107.048 648.734 96.2179 661.314 103.128 665.434L97.9111 667.649C107.575 668.001 96.6021 687.572 111.57 684.743L108.855 688.31L116.348 687.356C112.743 691.609 107.227 697.663 106.419 694.294C157.35 738.257 208.967 707.925 245.008 716.507L243.237 721.713L251.666 712.999L250.503 718.319C258.731 728.623 269.626 713.85 278.41 717.112L276.932 728.135C285.285 713.822 284.806 748.304 291.976 718.159L290.122 729.031C307.4 721.386 325.723 727.342 329.201 737.003C359.998 723.556 351.081 757.351 378.717 753.599L374.267 757.035C401.074 762.174 407.82 788.329 411.271 807.159C411.163 815.991 419.171 819.769 421.993 828.47L414.928 829.552C449.592 845.586 392.781 853.125 415.187 872.074L406.703 867.323C419.33 875.389 399.134 872.641 421.808 883.866L414.041 882.709C438.488 914.527 391.351 888.444 396.923 910.953L393.63 905.977C393.841 911.457 392.609 917.054 387.074 914.268L385.361 910.231C362.532 895.855 370.513 928.292 356.737 930.119L353.399 919.47C353.213 933.1 338.839 924.725 333.811 932.366L332.621 927.365L331.308 935.409L328.066 925.277C319.156 927.142 312.808 938.561 303.804 942.694Z" fill="#6339FE"/>
<path fill-rule="evenodd" clip-rule="evenodd" d="M359.666 497.267L360.484 500.003L359.666 497.267Z" fill="#6339FE"/>
</g>
<defs>
<clipPath id="clip0_588_65">
<rect width="1450" height="990" fill="white"/>
</clipPath>
</defs>
</svg>
