<svg width="915" height="168" viewBox="0 0 915 168" fill="none" xmlns="http://www.w3.org/2000/svg">
<path d="M729.016 18.7154C596.84 18.7154 463.784 13.8234 331.699 18.7154C310.36 19.5058 289.186 24.7152 266.702 24.7152C262.907 24.7152 216.45 25.4609 220.371 29.3817C229.791 38.802 279.427 30.7149 291.368 30.7149C351.032 30.7149 410.696 30.7149 470.36 30.7149C561.211 30.7149 659.351 30.4229 746.682 57.7138C759.361 61.676 841.928 66.7134 787.68 66.7134C736.552 66.7134 692.15 70.1258 642.02 81.3795C582.457 94.7507 515.452 112.268 454.361 114.711C413.517 116.345 370.835 128.733 330.366 135.711C290.322 142.615 247.629 138.71 207.038 138.71C183.928 138.71 160.818 138.71 137.707 138.71C124.597 138.71 163.929 138.71 177.039 138.71C279.892 138.71 375.461 116.92 477.027 104.045C589.915 89.7354 706.198 108.712 818.679 108.712C847.567 108.712 876.454 108.712 905.342 108.712C924.147 108.712 869.227 97.6612 852.344 89.3792C791.493 59.5275 721.561 33.5374 655.686 18.7154C577.328 1.08481 492.328 6.71594 412.363 6.71594C375.865 6.71594 341.538 6.92021 306.034 12.3824C230.048 24.0725 142.241 37.6537 71.7102 69.7133C47.4628 80.7348 -3.45475 90.7124 51.0443 90.7124C113.085 90.7124 167.575 69.7395 227.704 57.7138C286.119 46.0308 344.053 48.7142 403.696 48.7142C546.756 48.7142 688.255 66.7134 831.012 66.7134C840.011 66.7134 849.011 66.7134 858.011 66.7134C864.122 66.7134 876.343 72.8243 876.343 66.7134C876.343 61.2384 843.902 54.0686 839.678 51.3807C778.451 12.4177 694.031 33.509 628.354 14.049C575.397 -1.64184 502.173 12.7157 447.028 12.7157C386.919 12.7157 326.811 12.7157 266.702 12.7157C221.211 12.7157 176.331 12.279 131.041 17.3822C100.968 20.7707 69.4344 30.7149 39.3782 30.7149C33.7723 30.7149 -7.38092 34.7821 9.04609 36.7147C26.1352 38.7252 42.2617 50.2916 58.3774 56.0472C100.719 71.1693 138.382 97.0482 181.372 112.045C232.255 129.795 285.988 145.368 339.032 155.376C386.999 164.427 434.229 162.709 483.026 162.709C546.024 162.709 609.021 162.709 672.018 162.709C709.017 162.709 746.015 162.709 783.014 162.709C802.499 162.709 796.435 163.42 783.014 156.71" stroke="#6339FE" stroke-width="10" stroke-linecap="round"/>
</svg>
