<svg width="6531" height="1679" viewBox="0 0 6531 1679" fill="none" xmlns="http://www.w3.org/2000/svg">
<path d="M0.978078 835.544C1.08752 736.854 1.63475 638.11 0.978078 539.42C0.321411 446.258 40.2687 377.783 121.148 331.695C292.374 234.1 463.655 136.505 634.115 37.432C721.89 -13.5824 808.187 -11.5024 894.539 37.8698C1062.65 133.987 1230.26 231.035 1398.37 327.207C1485.43 377.017 1530.08 450.145 1529.43 551.626C1528.22 741.945 1527.35 932.318 1528.77 1122.58C1529.54 1223.84 1489.04 1298.94 1401.49 1349.25C1233.6 1445.75 1065.98 1542.74 897.932 1638.91C811.908 1688.12 724.188 1692.55 636.742 1642.69C468.58 1546.79 301.404 1449.08 132.64 1354.23C40.4329 1302.39 -3.45443 1227.51 0.211966 1121.1C3.49531 1026.03 0.923356 930.731 0.978078 835.544ZM1072.61 733.679C978.045 638.164 884.908 544.072 788.159 446.368C767.036 465.854 747.5 483.862 706.787 521.357C792.263 588.464 872.103 651.192 968.797 727.111C872.267 810.146 797.845 874.188 716.637 944.086C749.47 974.301 770.921 994.115 790.676 1012.29C890.052 914.036 982.423 822.79 1072.61 733.734V733.679ZM805.177 1176.44C726.323 1093.41 657.865 1021.32 581.582 941.021C662.243 868.057 732.397 804.618 820.336 725.086C790.512 696.732 769.17 676.48 754.723 662.741C644.732 768.601 549.788 859.956 468.909 937.737C558.489 1038.12 646.373 1136.54 737.158 1238.24C763.26 1214.54 780.99 1198.5 805.232 1176.5L805.177 1176.44Z" fill="#6339FE"/>
<path d="M1072.61 733.679C982.478 822.79 890.106 914.035 790.676 1012.23C770.921 994.06 749.47 974.245 716.637 944.031C797.845 874.187 872.267 810.146 968.797 727.056C872.157 651.136 792.263 588.408 706.787 521.301C747.445 483.807 766.981 465.799 788.159 446.312C884.908 544.072 978.045 638.109 1072.61 733.624V733.679Z" fill="#F5EFFB"/>
<path d="M805.177 1176.44C780.935 1198.45 763.205 1214.48 737.103 1238.18C646.318 1136.48 558.489 1038.07 468.854 937.681C549.679 859.901 644.622 768.546 754.668 662.686C769.115 676.424 790.457 696.677 820.28 725.03C732.342 804.562 662.188 868.057 581.527 940.966C657.81 1021.26 726.268 1093.35 805.122 1176.39L805.177 1176.44Z" fill="#F5EFFB"/>
<path d="M2158.57 1076.44C2136.13 1076.44 2116.65 1072.72 2100.07 1065.22C2083.49 1057.72 2069.7 1047.98 2058.59 1035.93C2047.48 1023.89 2039 1010.98 2033.15 997.072H2028.33V1070.04H1887.26V472.807H2029.92V698.868H2033.15C2038.78 685.239 2046.99 672.102 2057.77 659.403C2068.61 646.704 2082.34 636.359 2099.03 628.313C2115.72 620.267 2135.97 616.271 2159.72 616.271C2190.97 616.271 2220.08 624.481 2247.06 640.902C2274.03 657.323 2295.87 682.502 2312.56 716.438C2329.25 750.375 2337.62 793.672 2337.62 846.328C2337.62 898.984 2329.63 939.599 2313.6 973.809C2297.56 1008.02 2276 1033.69 2248.86 1050.77C2221.72 1067.85 2191.62 1076.44 2158.51 1076.44H2158.57ZM2109.26 965.38C2126.89 965.38 2141.77 960.454 2153.97 950.546C2166.18 940.639 2175.37 926.736 2181.61 908.837C2187.85 890.938 2191.02 870.084 2191.02 846.328C2191.02 822.572 2187.9 801.389 2181.61 783.6C2175.31 765.811 2166.18 752.017 2154.14 742.11C2142.1 732.203 2127.16 727.276 2109.26 727.276C2091.37 727.276 2077.09 732.093 2064.78 741.727C2052.46 751.36 2043.05 765.044 2036.54 782.834C2029.97 800.623 2026.74 821.806 2026.74 846.383C2026.74 870.959 2030.03 891.321 2036.54 909.111C2043.11 926.9 2052.52 940.694 2064.78 950.601C2077.09 960.508 2091.92 965.435 2109.26 965.435V965.38Z" fill="#12110C"/>
<path d="M2514.43 1078.03C2485.86 1078.03 2460.42 1073.16 2438.09 1063.41C2415.76 1053.67 2398.36 1039.05 2385.78 1019.51C2373.25 1000.03 2366.95 975.396 2366.95 945.784C2366.95 920.933 2371.28 899.969 2379.98 882.837C2388.68 865.704 2400.66 851.856 2416.04 841.128C2431.42 830.454 2449.09 822.244 2469.12 816.496C2489.15 810.749 2510.54 807.082 2533.25 805.494C2558.64 803.086 2579.06 800.678 2594.54 798.269C2610.03 795.861 2621.3 792.139 2628.42 787.048C2635.53 781.958 2639.03 774.897 2639.03 765.81V763.785C2639.03 749.061 2633.94 737.621 2623.82 729.301C2613.7 720.981 2599.8 716.876 2582.12 716.876C2563.13 716.876 2547.97 721.036 2536.65 729.301C2525.32 737.566 2517.99 748.787 2514.81 762.964L2383.75 758.531C2387.47 731.272 2397.43 706.914 2413.63 685.403C2429.77 663.891 2452.1 646.978 2480.56 634.717C2509.01 622.456 2543.43 616.271 2583.76 616.271C2612.05 616.271 2638.27 619.609 2662.29 626.287C2686.31 632.965 2707.33 642.708 2725.22 655.571C2743.11 668.434 2757.01 684.034 2766.92 702.48C2776.82 720.927 2781.75 741.891 2781.75 765.427V1070.09H2647.51V1007.14H2644.28C2636.02 1022.63 2625.73 1035.61 2613.42 1046.01C2601.11 1056.41 2586.77 1064.4 2570.35 1069.87C2553.94 1075.34 2535.28 1078.08 2514.43 1078.08V1078.03ZM2558.1 984.209C2573.31 984.209 2587.15 981.089 2599.58 974.794C2612 968.499 2621.9 959.906 2629.24 948.959C2636.57 938.011 2640.24 925.148 2640.24 910.479V868.386C2636.24 870.521 2631.37 872.437 2625.62 874.189C2619.88 875.94 2613.53 877.582 2606.58 879.224C2599.63 880.866 2592.63 882.18 2585.57 883.22C2578.51 884.26 2571.72 885.355 2565.32 886.45C2551.69 888.311 2540.15 891.595 2530.68 896.247C2521.21 900.9 2514.05 906.757 2509.23 913.708C2504.41 920.66 2502.01 929.089 2502.01 938.942C2502.01 953.666 2507.21 964.887 2517.66 972.605C2528.11 980.323 2541.57 984.209 2558.15 984.209H2558.1Z" fill="#12110C"/>
<path d="M2849 1070.04V621.908H2987.23V704.068H2992.05C3000.03 674.127 3013.33 652.013 3031.94 637.727C3050.49 623.441 3071.94 616.271 3096.24 616.271C3102.91 616.271 3109.81 616.654 3116.87 617.475C3123.93 618.296 3130.44 619.609 3136.29 621.47V744.956C3129.34 742.548 3120.42 740.741 3109.42 739.537C3098.43 738.333 3088.74 737.731 3080.15 737.731C3063.29 737.731 3048.14 741.453 3034.67 748.952C3021.21 756.451 3010.65 766.85 3002.99 780.206C2995.38 793.562 2991.55 809.052 2991.55 826.677V1069.98H2848.89L2849 1070.04Z" fill="#12110C"/>
<path d="M3444.49 621.853V727.275H3162.4V621.853H3444.49ZM3221.28 515.227H3363.55V928.87C3363.55 940.912 3366.51 949.889 3372.37 955.91C3378.22 961.931 3387.47 964.941 3400 964.941C3404.82 964.941 3410.34 964.394 3416.64 963.354C3422.93 962.314 3427.8 961.219 3431.25 960.124L3452.48 1063.52C3436.45 1068.06 3421.56 1071.35 3407.77 1073.32C3394.04 1075.34 3380.46 1076.33 3367.11 1076.33C3319.56 1076.33 3283.33 1065.05 3258.49 1042.45C3233.64 1019.84 3221.22 987.328 3221.22 944.853V515.172L3221.28 515.227Z" fill="#12110C"/>
<path d="M3699.77 1078.41C3652.76 1078.41 3612.27 1069.1 3578.34 1050.55C3544.41 1031.99 3518.42 1005.45 3500.42 970.963C3482.36 936.479 3473.38 895.317 3473.38 847.477C3473.38 799.638 3482.47 760.829 3500.63 726.236C3518.8 691.643 3544.47 664.658 3577.57 645.281C3610.68 625.904 3649.7 616.216 3694.57 616.216C3726.36 616.216 3755.53 621.252 3782.13 631.268C3808.72 641.285 3831.7 656.009 3851.08 675.386C3870.45 694.763 3885.39 718.628 3895.95 746.926C3906.51 775.225 3911.76 808.012 3911.76 845.124V880.374H3522.63V798.214H3844.02L3777.47 817.482C3777.47 796.901 3774.41 779.33 3768.28 764.77C3762.15 750.211 3753.07 738.935 3741.03 730.889C3728.99 722.842 3714.05 718.847 3696.16 718.847C3678.26 718.847 3663.16 722.842 3650.85 730.889C3638.53 738.935 3629.23 750.046 3622.78 764.333C3616.37 778.619 3613.14 795.532 3613.14 815.018V873.915C3613.14 894.77 3616.81 912.778 3624.14 928.049C3631.48 943.266 3641.93 954.98 3655.39 963.135C3668.91 971.291 3684.45 975.342 3702.07 975.342C3714.38 975.342 3725.6 973.59 3735.72 970.142C3745.85 966.693 3754.55 961.548 3761.77 954.706C3768.99 947.864 3774.47 939.653 3778.19 930.074L3908.81 933.687C3903.45 963.081 3891.74 988.588 3873.57 1010.26C3855.4 1031.88 3831.65 1048.69 3802.21 1060.57C3772.77 1072.44 3738.62 1078.41 3699.61 1078.41H3699.77Z" fill="#12110C"/>
<path d="M3960.69 1070.04V472.807H4103.35V1070.04H3960.69ZM4088.9 952.571L4090.1 782.232H4109.75L4235.17 621.909H4397.1L4209.95 851.966H4172.3L4088.95 952.571H4088.9ZM4238.78 1070.04L4121.79 884.041L4215.58 782.615L4403.12 1070.04H4238.84H4238.78Z" fill="#12110C"/>
<path d="M4578.99 1237.58V621.908H4720.07V698.868H4724.88C4730.52 685.238 4738.73 672.102 4749.51 659.403C4760.29 646.704 4774.08 636.359 4790.77 628.313C4807.46 620.266 4827.71 616.271 4851.46 616.271C4882.7 616.271 4911.81 624.481 4938.79 640.902C4965.77 657.323 4987.6 682.502 5004.29 716.438C5020.99 750.375 5029.36 793.671 5029.36 846.328C5029.36 898.984 5021.37 939.599 5005.33 973.809C4989.3 1008.02 4967.74 1033.69 4940.6 1050.77C4913.46 1067.85 4883.36 1076.44 4850.25 1076.44C4827.82 1076.44 4808.33 1072.72 4791.75 1065.22C4775.17 1057.72 4761.38 1047.98 4750.27 1035.93C4739.17 1023.89 4730.68 1010.97 4724.83 997.072H4721.6V1237.58H4578.94H4578.99ZM4801 965.379C4818.62 965.379 4833.51 960.453 4845.71 950.546C4857.86 940.639 4867.11 926.736 4873.34 908.837C4879.64 890.938 4882.76 870.083 4882.76 846.328C4882.76 822.572 4879.64 801.389 4873.34 783.6C4867.05 765.81 4857.91 752.017 4845.87 742.11C4833.83 732.202 4818.9 727.276 4801 727.276C4783.11 727.276 4768.83 732.093 4756.51 741.726C4744.2 751.36 4734.79 765.044 4728.28 782.834C4721.76 800.623 4718.48 821.806 4718.48 846.383C4718.48 870.959 4721.76 891.321 4728.28 909.11C4734.79 926.9 4744.25 940.693 4756.51 950.601C4768.77 960.508 4783.65 965.434 4801 965.434V965.379Z" fill="#12110C"/>
<path d="M5150.46 570.565C5130.43 570.565 5113.19 563.888 5098.75 550.532C5084.3 537.176 5077.13 521.029 5077.13 502.035C5077.13 483.042 5084.35 466.949 5098.75 453.758C5113.14 440.566 5130.43 433.943 5150.46 433.943C5170.49 433.943 5188.05 440.566 5202.33 453.758C5216.62 466.949 5223.79 483.097 5223.79 502.035C5223.79 520.974 5216.62 537.176 5202.33 550.532C5188.05 563.888 5170.76 570.565 5150.46 570.565ZM5079.54 1070.04V621.908H5222.2V1070.04H5079.54Z" fill="#12110C"/>
<path d="M5499.09 1078.41C5452.09 1078.41 5411.59 1069.1 5377.66 1050.55C5343.74 1031.99 5317.74 1005.45 5299.74 970.963C5281.68 936.479 5272.71 895.317 5272.71 847.477C5272.71 799.638 5281.79 760.829 5299.96 726.236C5318.13 691.643 5343.79 664.658 5376.9 645.281C5410.01 625.904 5449.02 616.216 5493.9 616.216C5525.69 616.216 5554.86 621.252 5581.45 631.268C5608.05 641.285 5631.03 656.009 5650.4 675.386C5669.77 694.763 5684.71 718.628 5695.27 746.926C5705.83 775.225 5711.09 808.012 5711.09 845.124V880.374H5321.96V798.214H5643.34L5576.8 817.482C5576.8 796.901 5573.74 779.33 5567.61 764.77C5561.48 750.211 5552.39 738.935 5540.35 730.889C5528.32 722.842 5513.38 718.847 5495.48 718.847C5477.59 718.847 5462.48 722.842 5450.17 730.889C5437.86 738.935 5428.56 750.046 5422.1 764.333C5415.64 778.619 5412.47 795.532 5412.47 815.018V873.915C5412.47 894.77 5416.13 912.778 5423.47 928.049C5430.8 943.266 5441.25 954.98 5454.71 963.135C5468.18 971.291 5483.77 975.342 5501.39 975.342C5513.7 975.342 5524.92 973.59 5535.05 970.142C5545.17 966.693 5553.87 961.548 5561.09 954.706C5568.32 947.919 5573.79 939.653 5577.51 930.074L5708.13 933.687C5702.77 963.081 5691.06 988.588 5672.89 1010.26C5654.72 1031.88 5630.97 1048.69 5601.53 1060.57C5572.15 1072.44 5537.95 1078.41 5498.93 1078.41H5499.09Z" fill="#12110C"/>
<path d="M5759.95 1070.04V621.908H5898.18V704.068H5903C5910.99 674.127 5924.29 652.013 5942.89 637.727C5961.44 623.441 5982.89 616.271 6007.19 616.271C6013.87 616.271 6020.76 616.654 6027.82 617.475C6034.88 618.296 6041.39 619.609 6047.25 621.47V744.956C6040.3 742.548 6031.38 740.741 6020.38 739.537C6009.38 738.333 5999.69 737.731 5991.1 737.731C5974.25 737.731 5959.09 741.453 5945.63 748.952C5932.17 756.451 5921.6 766.85 5913.94 780.206C5906.28 793.562 5902.51 809.052 5902.51 826.677V1069.98H5759.85L5759.95 1070.04Z" fill="#12110C"/>
<path d="M6082.54 1070.04V621.908H6220.77V704.068H6225.59C6233.58 674.127 6246.87 652.013 6265.48 637.727C6284.03 623.441 6305.48 616.271 6329.78 616.271C6336.45 616.271 6343.35 616.654 6350.41 617.475C6357.47 618.296 6363.98 619.609 6369.84 621.47V744.956C6362.89 742.548 6353.97 740.741 6342.97 739.537C6331.97 738.333 6322.28 737.731 6313.69 737.731C6296.84 737.731 6281.68 741.453 6268.22 748.952C6254.75 756.451 6244.19 766.85 6236.53 780.206C6228.93 793.562 6225.09 809.052 6225.09 826.677V1069.98H6082.43L6082.54 1070.04Z" fill="#12110C"/>
<path d="M6454.44 1078.85C6432.82 1078.85 6414.65 1071.57 6399.93 1057.01C6385.21 1042.45 6377.88 1024.5 6377.88 1003.09C6377.88 981.691 6385.21 963.738 6399.93 949.178C6414.65 934.618 6432.77 927.338 6454.44 927.338C6476.11 927.338 6494.22 934.618 6508.94 949.178C6523.66 963.738 6530.99 981.691 6530.99 1003.09C6530.99 1024.5 6523.66 1042.45 6508.94 1057.01C6494.22 1071.57 6476.11 1078.85 6454.44 1078.85Z" fill="#6339FE"/>
</svg>
