<svg width="1760" height="1064" viewBox="0 0 1760 1064" fill="none" xmlns="http://www.w3.org/2000/svg">
<g clip-path="url(#clip0_375_21473)">
<path d="M590.551 316.546C590.593 279.157 590.8 241.748 590.551 204.36C590.302 169.066 605.443 143.125 636.096 125.664C701.013 88.6908 765.929 51.6966 830.534 14.1839C863.801 -5.14271 896.508 -4.35472 929.236 14.3498C992.95 50.7634 1056.48 87.5296 1120.19 123.964C1153.19 142.834 1170.11 170.539 1169.86 208.984C1169.41 281.086 1169.07 353.208 1169.61 425.289C1169.9 463.652 1154.56 492.103 1121.37 511.16C1057.74 547.718 994.215 584.464 930.522 620.898C897.919 639.541 864.672 641.22 831.53 622.329C767.796 585.998 704.435 548.983 640.472 513.047C605.525 493.409 588.892 465.041 590.282 424.729C591.526 388.709 590.551 352.607 590.572 316.546H590.551ZM996.703 277.955C960.865 241.769 925.565 206.123 888.897 169.108C880.891 176.49 873.487 183.312 858.056 197.517C890.452 222.94 920.712 246.704 957.36 275.466C920.774 306.924 892.568 331.186 861.789 357.667C874.233 369.113 882.364 376.62 889.851 383.505C927.515 346.282 962.524 311.714 996.703 277.975V277.955ZM895.326 445.694C865.44 414.236 839.494 386.926 810.582 356.505C841.153 328.863 867.742 304.829 901.071 274.699C889.768 263.957 881.679 256.285 876.204 251.08C834.516 291.185 798.532 325.794 767.879 355.261C801.83 393.292 835.139 430.577 869.546 469.106C879.439 460.127 886.159 454.051 895.347 445.715L895.326 445.694Z" fill="#6339FE"/>
<path d="M996.704 277.955C962.545 311.714 927.536 346.282 889.851 383.484C882.364 376.599 874.234 369.092 861.79 357.646C892.568 331.186 920.775 306.924 957.36 275.445C920.733 246.684 890.453 222.919 858.057 197.496C873.466 183.292 880.871 176.469 888.897 169.087C925.565 206.123 960.865 241.748 996.704 277.934V277.955Z" fill="#F5EFFB"/>
<path d="M895.326 445.694C886.138 454.03 879.418 460.106 869.525 469.085C835.117 430.556 801.83 393.271 767.857 355.24C798.49 325.773 834.474 291.164 876.183 251.059C881.658 256.264 889.747 263.937 901.05 274.678C867.721 304.809 841.132 328.863 810.561 356.484C839.473 386.905 865.419 414.215 895.305 445.673L895.326 445.694Z" fill="#F5EFFB"/>
<path d="M102.829 1002.95C94.3257 1002.95 86.9423 1001.54 80.658 998.7C74.3738 995.859 69.1473 992.168 64.9371 987.606C60.7268 983.044 57.5121 978.15 55.293 972.883H53.4678V1000.53H0V774.267H54.0693V859.91H55.293C57.4292 854.746 60.5402 849.769 64.626 844.958C68.7325 840.148 73.9383 836.228 80.264 833.18C86.5897 830.132 94.2635 828.618 103.265 828.618C115.107 828.618 126.141 831.728 136.366 837.949C146.591 844.17 154.866 853.709 161.192 866.566C167.517 879.423 170.691 895.826 170.691 915.774C170.691 935.723 167.663 951.11 161.586 964.07C155.509 977.031 147.337 986.756 137.05 993.226C126.763 999.696 115.356 1002.95 102.808 1002.95H102.829ZM84.1424 960.877C90.8207 960.877 96.462 959.01 101.087 955.257C105.712 951.504 109.196 946.237 111.561 939.456C113.925 932.675 115.128 924.774 115.128 915.774C115.128 906.775 113.946 898.749 111.561 892.01C109.176 885.271 105.712 880.045 101.149 876.292C96.5864 872.538 90.9244 870.672 84.1424 870.672C77.3604 870.672 71.9472 872.497 67.2807 876.146C62.6142 879.796 59.0469 884.98 56.5788 891.72C54.09 898.459 52.8664 906.484 52.8664 915.795C52.8664 925.106 54.1108 932.82 56.5788 939.559C59.0676 946.299 62.6349 951.524 67.2807 955.278C71.9265 959.031 77.5678 960.897 84.1424 960.897V960.877Z" fill="#F5EFFB"/>
<path d="M237.701 1003.55C226.875 1003.55 217.231 1001.71 208.769 998.016C200.307 994.325 193.711 988.788 188.941 981.385C184.192 974.003 181.807 964.671 181.807 953.453C181.807 944.038 183.445 936.096 186.743 929.605C190.04 923.115 194.582 917.868 200.41 913.804C206.238 909.76 212.937 906.65 220.528 904.473C228.119 902.295 236.229 900.906 244.836 900.304C254.459 899.392 262.195 898.48 268.064 897.567C273.934 896.655 278.206 895.245 280.903 893.316C283.599 891.388 284.926 888.713 284.926 885.27V884.503C284.926 878.925 282.997 874.591 279.16 871.439C275.324 868.287 270.056 866.732 263.356 866.732C256.16 866.732 250.415 868.308 246.122 871.439C241.828 874.57 239.049 878.821 237.846 884.192L188.174 882.512C189.584 872.185 193.359 862.958 199.498 854.808C205.616 846.659 214.078 840.251 224.863 835.606C235.648 830.94 248.693 828.618 263.979 828.618C274.701 828.618 284.636 829.883 293.741 832.413C302.846 834.942 310.81 838.633 317.592 843.507C324.374 848.359 329.642 854.29 333.396 861.278C337.15 868.266 339.016 876.208 339.016 885.125V1000.55H288.141V976.698H286.917C283.785 982.567 279.886 987.482 275.22 991.422C270.553 995.361 265.119 998.389 258.897 1000.46C252.675 1002.54 245.603 1003.57 237.701 1003.57V1003.55ZM254.252 968.01C260.017 968.01 265.265 966.828 269.973 964.443C274.681 962.058 278.434 958.803 281.214 954.655C283.993 950.508 285.382 945.635 285.382 940.077V924.131C283.868 924.94 282.023 925.665 279.845 926.329C277.667 926.993 275.261 927.615 272.627 928.237C269.993 928.859 267.339 929.357 264.663 929.751C261.988 930.145 259.416 930.559 256.989 930.974C251.825 931.679 247.449 932.923 243.861 934.686C240.273 936.449 237.556 938.667 235.731 941.301C233.906 943.934 232.993 947.128 232.993 950.861C232.993 956.439 234.963 960.69 238.925 963.614C242.886 966.537 247.988 968.01 254.272 968.01H254.252Z" fill="#F5EFFB"/>
<path d="M364.506 1000.52V830.754H416.896V861.879H418.721C421.749 850.536 426.789 842.159 433.84 836.746C440.892 831.334 449.001 828.618 458.21 828.618C460.74 828.618 463.353 828.763 466.029 829.074C468.704 829.385 471.172 829.883 473.392 830.588V877.37C470.758 876.457 467.377 875.773 463.208 875.317C459.039 874.86 455.368 874.632 452.112 874.632C445.724 874.632 439.979 876.042 434.877 878.883C429.775 881.724 425.772 885.664 422.869 890.724C419.986 895.784 418.534 901.652 418.534 908.33V1000.5H364.465L364.506 1000.52Z" fill="#F5EFFB"/>
<path d="M590.2 830.733V870.672H483.285V830.733H590.2ZM505.601 790.338H559.526V947.045C559.526 951.607 560.646 955.008 562.865 957.289C565.084 959.57 568.589 960.711 573.338 960.711C575.164 960.711 577.258 960.503 579.643 960.109C582.029 959.715 583.874 959.301 585.181 958.886L593.228 998.058C587.151 999.779 581.51 1001.02 576.283 1001.77C571.078 1002.54 565.934 1002.91 560.874 1002.91C542.851 1002.91 529.121 998.638 519.705 990.074C510.289 981.51 505.581 969.192 505.581 953.1V790.317L505.601 790.338Z" fill="#F5EFFB"/>
<path d="M686.952 1003.7C669.136 1003.7 653.789 1000.17 640.93 993.143C628.071 986.113 618.219 976.056 611.396 962.992C604.552 949.928 601.15 934.334 601.15 916.21C601.15 898.086 604.593 883.384 611.479 870.278C618.365 857.172 628.092 846.949 640.639 839.608C653.187 832.268 667.975 828.597 684.982 828.597C697.032 828.597 708.086 830.505 718.166 834.3C728.245 838.095 736.956 843.673 744.298 851.014C751.64 858.354 757.302 867.396 761.305 878.116C765.308 888.837 767.299 901.259 767.299 915.318V928.673H619.816V897.547H741.623L716.403 904.846C716.403 897.049 715.241 890.393 712.918 884.877C710.596 879.361 707.153 875.089 702.59 872.041C698.027 868.992 692.365 867.478 685.583 867.478C678.801 867.478 673.077 868.992 668.41 872.041C663.744 875.089 660.218 879.298 657.771 884.711C655.344 890.123 654.12 896.531 654.12 903.913V926.226C654.12 934.126 655.51 940.949 658.289 946.734C661.068 952.499 665.03 956.937 670.132 960.026C675.255 963.116 681.145 964.651 687.823 964.651C692.49 964.651 696.741 963.987 700.578 962.681C704.415 961.374 707.713 959.425 710.45 956.833C713.188 954.241 715.262 951.13 716.672 947.501L766.179 948.87C764.146 960.006 759.708 969.669 752.822 977.881C745.937 986.072 736.935 992.438 725.777 996.938C714.64 1001.44 701.677 1003.7 686.89 1003.7H686.952Z" fill="#F5EFFB"/>
<path d="M785.84 1000.53V774.267H839.909V1000.53H785.84ZM834.434 956.024L834.89 891.492H842.336L889.872 830.754H951.242L880.311 917.91H866.042L834.455 956.024H834.434ZM891.241 1000.53L846.899 930.062L882.447 891.637L953.523 1000.53H891.262H891.241Z" fill="#F5EFFB"/>
<path d="M1020.18 1064V830.754H1073.65V859.909H1075.48C1077.61 854.746 1080.72 849.769 1084.81 844.958C1088.89 840.147 1094.12 836.228 1100.45 833.18C1106.77 830.131 1114.45 828.618 1123.45 828.618C1135.29 828.618 1146.32 831.728 1156.55 837.949C1166.77 844.17 1175.05 853.709 1181.37 866.566C1187.7 879.423 1190.87 895.825 1190.87 915.774C1190.87 935.723 1187.85 951.109 1181.77 964.07C1175.69 977.03 1167.52 986.756 1157.23 993.226C1146.95 999.695 1135.54 1002.95 1122.99 1002.95C1114.49 1002.95 1107.1 1001.54 1100.82 998.7C1094.54 995.859 1089.31 992.168 1085.1 987.606C1080.89 983.044 1077.67 978.15 1075.46 972.883H1074.23V1064H1020.16H1020.18ZM1104.33 960.876C1111 960.876 1116.64 959.01 1121.27 955.257C1125.87 951.503 1129.38 946.236 1131.74 939.455C1134.13 932.674 1135.31 924.774 1135.31 915.774C1135.31 906.774 1134.13 898.749 1131.74 892.01C1129.36 885.27 1125.89 880.045 1121.33 876.291C1116.77 872.538 1111.11 870.672 1104.33 870.672C1097.54 870.672 1092.13 872.497 1087.46 876.146C1082.8 879.796 1079.23 884.98 1076.76 891.719C1074.29 898.459 1073.05 906.484 1073.05 915.795C1073.05 925.106 1074.29 932.82 1076.76 939.559C1079.23 946.298 1082.82 951.524 1087.46 955.277C1092.11 959.031 1097.75 960.897 1104.33 960.897V960.876Z" fill="#F5EFFB"/>
<path d="M1236.77 811.303C1229.18 811.303 1222.65 808.773 1217.17 803.713C1211.7 798.653 1208.98 792.536 1208.98 785.34C1208.98 778.145 1211.72 772.048 1217.17 767.051C1222.63 762.053 1229.18 759.544 1236.77 759.544C1244.36 759.544 1251.02 762.053 1256.43 767.051C1261.84 772.048 1264.56 778.166 1264.56 785.34C1264.56 792.515 1261.84 798.653 1256.43 803.713C1251.02 808.773 1244.46 811.303 1236.77 811.303ZM1209.89 1000.53V830.754H1263.96V1000.53H1209.89Z" fill="#F5EFFB"/>
<path d="M1368.91 1003.7C1351.09 1003.7 1335.74 1000.17 1322.88 993.143C1310.02 986.113 1300.17 976.056 1293.35 962.992C1286.5 949.928 1283.1 934.334 1283.1 916.21C1283.1 898.086 1286.55 883.384 1293.43 870.278C1300.32 857.172 1310.04 846.949 1322.59 839.608C1335.14 832.268 1349.93 828.597 1366.93 828.597C1378.98 828.597 1390.04 830.505 1400.12 834.3C1410.2 838.095 1418.91 843.673 1426.25 851.014C1433.59 858.354 1439.26 867.396 1443.26 878.116C1447.26 888.837 1449.25 901.259 1449.25 915.318V928.673H1301.77V897.547H1423.58L1398.36 904.846C1398.36 897.049 1397.19 890.393 1394.87 884.877C1392.55 879.361 1389.11 875.089 1384.54 872.041C1379.98 868.992 1374.32 867.478 1367.54 867.478C1360.75 867.478 1355.03 868.992 1350.36 872.041C1345.7 875.089 1342.17 879.298 1339.72 884.711C1337.28 890.123 1336.07 896.531 1336.07 903.913V926.226C1336.07 934.126 1337.46 940.949 1340.24 946.734C1343.02 952.499 1346.98 956.937 1352.08 960.026C1357.19 963.116 1363.1 964.651 1369.78 964.651C1374.44 964.651 1378.69 963.987 1382.53 962.681C1386.37 961.374 1389.67 959.425 1392.4 956.833C1395.14 954.262 1397.22 951.13 1398.63 947.501L1448.13 948.87C1446.1 960.006 1441.66 969.669 1434.78 977.881C1427.89 986.072 1418.89 992.438 1407.73 996.938C1396.59 1001.44 1383.63 1003.7 1368.84 1003.7H1368.91Z" fill="#F5EFFB"/>
<path d="M1467.77 1000.52V830.754H1520.16V861.879H1521.99C1525.01 850.536 1530.05 842.159 1537.11 836.746C1544.16 831.334 1552.27 828.618 1561.48 828.618C1564.01 828.618 1566.62 828.763 1569.29 829.074C1571.97 829.385 1574.44 829.883 1576.66 830.588V877.37C1574.02 876.457 1570.64 875.773 1566.47 875.317C1562.31 874.86 1558.63 874.632 1555.38 874.632C1548.99 874.632 1543.24 876.042 1538.14 878.883C1533.04 881.724 1529.04 885.664 1526.13 890.724C1523.23 895.784 1521.8 901.652 1521.8 908.33V1000.5H1467.73L1467.77 1000.52Z" fill="#F5EFFB"/>
<path d="M1590.04 1000.52V830.754H1642.42V861.879H1644.25C1647.28 850.536 1652.32 842.159 1659.37 836.746C1666.4 831.334 1674.53 828.618 1683.74 828.618C1686.27 828.618 1688.88 828.763 1691.56 829.074C1694.23 829.385 1696.7 829.883 1698.92 830.588V877.37C1696.29 876.457 1692.91 875.773 1688.74 875.317C1684.57 874.86 1680.9 874.632 1677.64 874.632C1671.25 874.632 1665.51 876.042 1660.41 878.883C1655.3 881.724 1651.3 885.664 1648.4 890.724C1645.52 895.784 1644.06 901.652 1644.06 908.33V1000.5H1589.99L1590.04 1000.52Z" fill="#F5EFFB"/>
<path d="M1730.98 1003.86C1722.79 1003.86 1715.91 1001.11 1710.33 995.59C1704.75 990.074 1701.97 983.272 1701.97 975.164C1701.97 967.056 1704.75 960.254 1710.33 954.738C1715.91 949.222 1722.77 946.464 1730.98 946.464C1739.2 946.464 1746.06 949.222 1751.64 954.738C1757.22 960.254 1760 967.056 1760 975.164C1760 983.272 1757.22 990.074 1751.64 995.59C1746.06 1001.11 1739.2 1003.86 1730.98 1003.86Z" fill="#6339FE"/>
</g>
<defs>
<clipPath id="clip0_375_21473">
<rect width="1760" height="1064" fill="white"/>
</clipPath>
</defs>
</svg>
