<svg width="1530" height="1679" viewBox="0 0 1530 1679" fill="none" xmlns="http://www.w3.org/2000/svg">
<path d="M0.978078 835.544C1.08752 736.854 1.63475 638.11 0.978078 539.42C0.321411 446.258 40.2687 377.783 121.148 331.695C292.374 234.1 463.655 136.505 634.115 37.432C721.89 -13.5824 808.187 -11.5024 894.539 37.8698C1062.65 133.987 1230.26 231.035 1398.37 327.207C1485.43 377.017 1530.08 450.145 1529.43 551.626C1528.22 741.945 1527.35 932.318 1528.77 1122.58C1529.54 1223.84 1489.04 1298.94 1401.49 1349.25C1233.6 1445.75 1065.98 1542.74 897.932 1638.91C811.908 1688.12 724.188 1692.55 636.742 1642.69C468.58 1546.79 301.404 1449.08 132.64 1354.23C40.4329 1302.39 -3.45443 1227.51 0.211966 1121.1C3.49531 1026.03 0.923356 930.731 0.978078 835.544ZM1072.61 733.679C978.045 638.164 884.908 544.072 788.159 446.368C767.036 465.854 747.5 483.862 706.787 521.357C792.263 588.464 872.103 651.192 968.797 727.111C872.267 810.146 797.845 874.188 716.637 944.086C749.47 974.301 770.921 994.115 790.676 1012.29C890.052 914.036 982.423 822.79 1072.61 733.734V733.679ZM805.177 1176.44C726.323 1093.41 657.865 1021.32 581.582 941.021C662.243 868.057 732.397 804.618 820.336 725.086C790.512 696.732 769.17 676.48 754.723 662.741C644.732 768.601 549.788 859.956 468.909 937.737C558.489 1038.12 646.373 1136.54 737.158 1238.24C763.26 1214.54 780.99 1198.5 805.232 1176.5L805.177 1176.44Z" fill="#6339FE"/>
<path d="M1072.6 733.679C982.477 822.79 890.106 914.035 790.675 1012.23C770.921 994.06 749.47 974.245 716.636 944.031C797.844 874.187 872.266 810.146 968.797 727.056C872.157 651.136 792.262 588.408 706.786 521.301C747.445 483.807 766.981 465.799 788.158 446.312C884.907 544.072 978.045 638.109 1072.6 733.624V733.679Z" fill="#F5EFFB"/>
<path d="M805.177 1176.44C780.935 1198.45 763.205 1214.48 737.102 1238.18C646.318 1136.48 558.489 1038.07 468.854 937.681C549.678 859.901 644.622 768.546 754.668 662.686C769.115 676.424 790.457 696.677 820.28 725.03C732.341 804.562 662.187 868.057 581.527 940.966C657.81 1021.26 726.267 1093.35 805.122 1176.39L805.177 1176.44Z" fill="#F5EFFB"/>
</svg>
